<?xml version="1.0" encoding="utf-8"?>
<!-- Generator: Adobe Illustrator 24.2.0, SVG Export Plug-In . SVG Version: 6.00 Build 0)  -->
<svg version="1.1" id="レイヤー_1" xmlns="http://www.w3.org/2000/svg" xmlns:xlink="http://www.w3.org/1999/xlink" x="0px"
	 y="0px" viewBox="0 0 42 66" style="enable-background:new 0 0 42 66;" xml:space="preserve">
<style type="text/css">
	.st0{fill:#FFFFFF;}
</style>
<g id="グループ_165" transform="translate(0 -0.001)">
	<path id="パス_6" class="st0" d="M24.2,44.3c3.5,1.3,5.3-0.4,5.9-1.5s1.2-2.7,0.6-3.5c-0.7-1-1.7-1.7-2.8-2
		c-0.7-0.3-1.5-0.4-2.2-0.3c-0.5,0.1-1,0.5-1.1,1c-0.2,0.5-0.6,1.5-1.1,1.3c-3.4-2.7-5.9-6.3-7.4-10.4c0-0.5,1-0.5,1.6-0.5
		c0.5,0.1,1.1-0.2,1.3-0.7c0.3-0.7,0.5-1.5,0.4-2.2c0-1.2-0.3-2.3-1-3.3c-0.6-0.8-2.2-0.8-3.5-0.5s-3.4,1.3-3.4,5.1s2.3,8.1,4,10.4
		S20.7,43,24.2,44.3z"/>
	<path id="パス_7" class="st0" d="M34.4,0H7.6C3.4,0,0,3.4,0,7.7v0v46.1C0,60.5,5.4,66,12.2,66c0,0,0,0,0,0h17.6
		C36.5,66,42,60.5,42,53.7c0,0,0,0,0,0V7.7C42,3.4,38.6,0,34.4,0z M21,62c-1,0-1.9-0.8-1.9-1.9c0-1,0.8-1.9,1.9-1.9
		c1,0,1.9,0.8,1.9,1.9c0,0,0,0,0,0C22.9,61.2,22,62,21,62C21,62,21,62,21,62L21,62z M16.2,2.9h9.7c0.5,0,1,0.5,1,1
		c0,0.5-0.4,0.9-1,1h-9.7c-0.5,0-1-0.5-1-1C15.2,3.3,15.6,2.9,16.2,2.9z M4.3,53.7V9.2h33.4v44.5c0,0.5,0,1-0.1,1.5H4.4
		C4.4,54.7,4.3,54.2,4.3,53.7L4.3,53.7z"/>
</g>
</svg>
