<?xml version="1.0" encoding="utf-8"?>
<!-- Generator: Adobe Illustrator 24.2.0, SVG Export Plug-In . SVG Version: 6.00 Build 0)  -->
<svg version="1.1" id="グループ_155" xmlns="http://www.w3.org/2000/svg" xmlns:xlink="http://www.w3.org/1999/xlink" x="0px"
	 y="0px" viewBox="0 0 24 38" style="enable-background:new 0 0 24 38;" xml:space="preserve">
<style type="text/css">
	.st0{fill:#FFFFFF;}
</style>
<path id="パス_192" class="st0" d="M13.7,25.1c1.9,0.7,2.8-0.2,3.2-0.8s0.6-1.4,0.3-1.9c-0.4-0.5-0.9-0.9-1.5-1.1
	c-0.4-0.2-0.8-0.2-1.2-0.2c-0.3,0-0.5,0.2-0.6,0.5c-0.1,0.3-0.3,0.8-0.6,0.7c-1.8-1.4-3.2-3.4-4-5.6c0-0.2,0.5-0.3,0.8-0.3
	c0.3,0,0.6-0.1,0.7-0.4c0.2-0.4,0.3-0.8,0.2-1.2c0-0.6-0.2-1.3-0.5-1.8c-0.3-0.4-1.2-0.4-1.9-0.3S7,13.6,7,15.6
	C7.5,19.7,10,23.3,13.7,25.1L13.7,25.1z"/>
<path id="パス_193" class="st0" d="M19.2,1.3H4.8c-2.3,0-4.1,1.8-4.1,4.1v24.7c0,3.6,2.9,6.6,6.6,6.6c0,0,0,0,0,0h9.5
	c3.6,0,6.6-2.9,6.6-6.6c0,0,0,0,0,0V5.4C23.3,3.1,21.5,1.3,19.2,1.3z M12,34.6c-0.6,0-1-0.5-1-1c0-0.6,0.5-1,1-1c0.6,0,1,0.5,1,1
	c0,0,0,0,0,0C13,34.1,12.6,34.6,12,34.6z M9.4,2.8h5.2c0.3,0,0.5,0.2,0.5,0.5c0,0.3-0.2,0.5-0.5,0.5H9.4c-0.3,0-0.5-0.2-0.5-0.5
	C8.9,3.1,9.1,2.8,9.4,2.8z M3,30.1V6.2h18v23.9c0,0.3,0,0.5-0.1,0.8H3.1C3,30.6,3,30.4,3,30.1L3,30.1z"/>
</svg>
