<?xml version="1.0" encoding="utf-8"?>
<!-- Generator: Adobe Illustrator 24.2.0, SVG Export Plug-In . SVG Version: 6.00 Build 0)  -->
<svg version="1.1" id="レイヤー_1" xmlns="http://www.w3.org/2000/svg" xmlns:xlink="http://www.w3.org/1999/xlink" x="0px"
	 y="0px" viewBox="0 0 142 24" style="enable-background:new 0 0 142 24;" xml:space="preserve">
<style type="text/css">
	.st0{fill:#FFFFFF;}
</style>
<g id="グループ_154" transform="translate(0 0)">
	<path id="パス_24" class="st0" d="M7.9,5.7v13c0,1.3-0.1,2.6-0.2,3.9h5.7c-0.2-1.3-0.2-2.6-0.2-3.9v-13h2.9c1.3,0,2.7,0,4,0.2V1
		c-1.3,0.1-2.7,0.2-4,0.2H4.8C3.5,1.2,2.3,1.1,1,1v4.9c1.3-0.1,2.6-0.2,3.9-0.2H7.9z"/>
	<path id="パス_25" class="st0" d="M23.2,22.6h5.5c-0.2-1.3-0.2-2.5-0.2-3.8v-5h8.7v5c0,1.3,0,2.5-0.2,3.8h5.6
		c-0.2-1.3-0.2-2.5-0.2-3.8V5c0-1.3,0-2.6,0.2-3.8H37c0.2,1.3,0.2,2.5,0.2,3.8v4.3h-8.7V5c0-1.3,0.1-2.5,0.2-3.8h-5.5
		c0.2,1.3,0.2,2.5,0.2,3.8v13.8C23.4,20.1,23.4,21.3,23.2,22.6z"/>
	<path id="パス_26" class="st0" d="M58.9,18.1h-6.7v-4.3h5.6c1.3,0,2.6,0,3.9,0.2V9.2c-1.3,0.1-2.6,0.2-3.9,0.2h-5.6V5.6h6.7
		c1.3,0,2.6,0,3.8,0.2V1c-1.3,0.1-2.6,0.2-3.8,0.2h-8.2c-2,0-2.7,0-3.8-0.1c0.2,1.2,0.2,2.5,0.2,3.8v14.1c0,1.3,0,2.5-0.2,3.8
		c1.1-0.1,1.8-0.1,3.8-0.1h8.1c1.4,0,2.8,0,4.3,0.2V18C61.7,18.1,60.3,18.2,58.9,18.1z"/>
	<path class="st0" d="M138.6,14c-0.6-0.3-1.3-0.5-1.9-0.7c0,0,0,0,0,0c0,0,0,0,0,0c-0.2-0.1-0.5-0.1-0.7-0.2l0,0c0,0,0,0,0,0
		c0,0,0,0,0,0c-0.3-0.1-0.7-0.2-1.1-0.2l-0.2,0c-2.5-0.5-2.9-0.8-2.9-1.4c0-0.6,0.8-1,2-1c0.7,0,1.3,0.1,1.9,0.5c0,0,0,0,0,0h0.1
		c0,0,0,0,0,0c0,0,0,0,0,0c0,0,0,0,0,0.1c0.2,0.2,0.3,0.4,0.4,0.7c0,0,0,0,0,0h0.1c0,0,0,0,0,0c0,0,0,0,0,0h0.2c0,0,0,0,0,0l4,0
		c0,0,0,0,0,0c0,0,0,0,0,0c0-0.6-0.2-1.2-0.5-1.7c0,0,0,0,0,0c-0.3-0.5-0.7-1-1.1-1.4c-0.3-0.3-0.7-0.5-1.1-0.8
		c-0.3-0.1-0.6-0.3-0.9-0.4c0,0,0,0,0,0c0,0,0,0,0,0c-0.3-0.1-0.5-0.2-0.8-0.2c0,0,0,0,0,0c0,0,0,0,0,0c-0.8-0.2-1.6-0.3-2.4-0.3
		c0,0-0.1,0-0.1,0c-1.8-0.1-3.5,0.4-5,1.4c0,0,0,0,0,0c0,0,0,0,0,0c-0.3,0.2-0.6,0.5-0.8,0.8c0,0,0,0.1,0,0.1l-0.1,0c0,0,0,0,0,0
		c-0.5,0.7-0.8,1.7-0.8,2.6c-0.1,2,1.2,3.7,3.1,4.2c1.1,0.3,2.2,0.6,3.3,0.8c0,0,0,0,0,0c0,0,0,0,0,0c0,0,0,0,0,0l0,0c0,0,0,0,0,0
		l0.3,0.1c0.7,0.1,1.4,0.3,2,0.6c0.1,0.1,0.3,0.2,0.4,0.3c0,0,0,0,0,0c0,0,0,0,0,0l0,0l0,0c0,0,0,0,0,0.1c0.1,0.1,0.1,0.3,0.1,0.4
		c0,0.7-0.8,1.1-2.3,1.1c-0.4,0-0.6,0-0.9,0c0,0,0,0,0,0h0c0,0,0,0-0.1,0c-0.7,0-1.3-0.3-1.8-0.8c0,0,0,0,0,0c0,0,0,0,0,0
		c0,0,0-0.1,0-0.1l0,0c0,0,0,0,0,0c-0.1-0.2-0.2-0.4-0.2-0.5c0,0,0,0,0,0l-2.3,0c0,0,0,0,0,0c0,0,0,0,0,0c0,0,0,0,0,0c0,0,0,0,0,0
		l-2.2,0c0,0,0,0,0,0c0,0,0,0,0,0c0.1,1,0.5,2,1.1,2.7c0.8,1,1.9,1.8,3.1,2.1c0,0,0,0,0,0c0.7,0.2,1.5,0.3,2.3,0.4c0,0,0,0,0,0l0,0
		l0,0c0,0,0,0,0,0l0.3,0c0,0,0,0,0,0c0,0,0,0,0,0c0.2,0,0.4,0,0.6,0c0,0,0,0,0,0l0,0c0,0,0,0,0,0c0.1,0,0.1,0,0.2,0
		c1.2,0,2.4-0.2,3.5-0.5c0,0,0,0,0,0h0c0,0,0,0,0,0c0.1,0,0.2-0.1,0.3-0.1c0,0,0,0,0,0c0,0,0,0,0,0c0.2-0.1,0.5-0.2,0.7-0.3l0,0
		c0.4-0.2,0.7-0.5,1-0.7c0.2-0.2,0.4-0.5,0.6-0.8c0,0,0,0,0,0c0.5-0.8,0.7-1.7,0.7-2.6C141.1,16.2,140.1,14.6,138.6,14z"/>
	<path id="パス_28" class="st0" d="M76.6,1.1h-5.4c-2.1,0-2.8,0-3.8-0.1c0.2,1.3,0.3,2.5,0.2,3.8v14c0,1.3,0,2.5-0.2,3.8
		c1.1,0,1.8-0.1,3.8-0.1h5.5c2.7,0.1,5.3-0.8,7.2-2.6c2-2,3-4.8,3-8.3c0-3.4-1-6.1-2.8-8C82,1.8,79.3,0.9,76.6,1.1z M79.9,16.6
		c-1,1-2.4,1.5-3.8,1.4h-3.5V5.6h3.4c1.5-0.1,2.9,0.3,4,1.3c1,1,1.5,2.6,1.5,4.8C81.7,13.5,81.1,15.2,79.9,16.6L79.9,16.6z"/>
	<path id="パス_29" class="st0" d="M102.3,3.8c-0.4-0.9-0.7-1.8-0.9-2.8h-6.7c-0.2,1-0.5,1.9-0.8,2.8l-5.6,15.5
		c-0.3,1.1-0.8,2.1-1.2,3.1h6c0.1-0.9,0.3-1.9,0.6-2.8l0.7-2.2h7.4l0.7,2.2c0.3,0.9,0.5,1.8,0.6,2.8h6c-0.3-0.7-0.8-1.8-1.2-3.1
		L102.3,3.8z M95.6,13.2L98,5.5l2.4,7.7H95.6z"/>
	<path id="パス_30" class="st0" d="M119.9,3.8L117,9l-2.9-5.2c-0.5-0.9-0.9-1.8-1.2-2.7h-6.5c1,1.5,1.6,2.3,2.1,3.1l5.9,9.7v4.8
		c0,1.3-0.1,2.5-0.2,3.8h5.6c-0.1-1.3-0.2-2.5-0.2-3.8v-4.8l5.9-9.7c0.3-0.6,1.3-2,2.1-3.1h-6.5C120.8,2,120.4,2.9,119.9,3.8z"/>
</g>
</svg>
