<?xml version="1.0" encoding="utf-8"?>
<!-- Generator: Adobe Illustrator 24.2.0, SVG Export Plug-In . SVG Version: 6.00 Build 0)  -->
<svg version="1.1" id="レイヤー_1" xmlns="http://www.w3.org/2000/svg" xmlns:xlink="http://www.w3.org/1999/xlink" x="0px"
	 y="0px" viewBox="0 0 333 106" style="enable-background:new 0 0 333 106;" xml:space="preserve">
<style type="text/css">
	.st0{fill:#FFFFFF;}
</style>
<g id="グループ_250_1_" transform="matrix(0.998, 0.07, -0.07, 0.998, -15.075, -1.338)">
	<path id="合体_1_1_" d="M171.5,40l-20.3,0.8l-10.8-29.3L156-8.2l61,3.2l7.3,27l-11.8,16.3l-34.8,1.5l-7.4,10.1L171.5,40z"/>
</g>
<path id="パス_262" class="st0" d="M142.4,23.3c0.1,0,0.1,0,0.2,0c0.1,0,0.1,0,0.2,0c1,0.1,1.5,0.2,1.6,0.2l0.4,0
	c-0.1,0.8-0.1,0.8-0.2,1.7c-1.6,0.4-2.8,1.8-3,3.4c-0.2,0.9,0.4,1.8,1.4,2c0,0,0.1,0,0.1,0c1.1,0,2.1-0.5,2.8-1.2
	c1.1-1,2-2.1,2.6-3.4c1.2,0.4,1.7,1.1,1.7,2.1c-0.2,1.1-1.1,2-2.2,2.2c-0.6,0.2-1.2,0.2-1.8,0.2c0.2,0.3,0.3,0.6,0.4,1
	c0.9,0,1.7-0.2,2.5-0.5c1.2-0.4,2-1.5,2.1-2.7c0.1-1.4-0.9-2.7-2.3-3c0.3-0.5,0.4-0.8,0.4-0.9l-1-0.4c-0.1,0.3-0.2,0.7-0.3,1
	c-0.3,0-0.4-0.1-0.7-0.1c-0.6,0-1.1,0-1.7,0.1c0-0.5,0.1-0.6,0.2-1.5c1.4,0,2.9,0,4.3-0.2c0.1,0,0.3,0,0.4,0l0-1
	c-1.5,0.3-3.1,0.4-4.6,0.3c0.1-0.5,0.2-1.1,0.4-1.6l-1.1-0.1c0,0.1,0,0.2,0,0.2c0,0.1-0.1,0.5-0.1,0.7c-0.1,0.6-0.1,0.6-0.1,0.8
	l-0.3,0c-0.7,0-1.5-0.1-2.2-0.3L142.4,23.3z M144.7,26.2c-0.1,1-0.1,2.1,0,3.1c-0.4,0.3-0.8,0.5-1.3,0.5c-0.5,0-0.8-0.5-0.7-1.1
	c0.1-0.6,0.3-1.2,0.8-1.6C143.8,26.7,144.2,26.4,144.7,26.2L144.7,26.2z M145.5,28.7L145.5,28.7c0-0.1,0-0.2,0-0.3
	c0-0.8,0-1.7,0.1-2.5c0.5-0.1,1.1-0.2,1.6-0.2c0.2,0,0.3,0,0.5,0.1c-0.5,1-1.1,1.8-1.8,2.6C145.6,28.6,145.6,28.6,145.5,28.7
	L145.5,28.7z M158,21.9c-0.1,0.7-0.3,1.5-0.6,2.2c-0.2,0-0.5,0-0.8,0c-0.5,0-1-0.1-1.4-0.2l-0.1,1l0.4,0c0.4,0,0.5,0,0.7,0.1
	c0.5,0,0.6,0,0.9,0c-0.6,1.7-1.5,3.3-2.7,4.7l0.9,0.6c0.1-0.1,0.1-0.2,0.3-0.4c0.5-0.8,0.6-1,1-1.5c0.6-1.1,1.1-2.2,1.6-3.4
	c0.7,0,1.3,0,2-0.1c0.1,0,0.3,0,0.4,0l0-1c-0.7,0.1-1.4,0.2-2.1,0.2c0.2-0.6,0.3-0.8,0.4-1.2c0.1-0.3,0.1-0.5,0.2-0.8L158,21.9z
	 M164.9,25.7c-1-0.7-2-1.3-3.1-1.8l-0.6,0.8c1.1,0.5,2.2,1.1,3.1,1.9L164.9,25.7z M164.6,31c-0.1-0.1-0.1-0.1-0.2-0.2
	c-0.1-0.1-0.2-0.2-0.3-0.3c-0.6-0.5-1.2-1-2-1.3c0-0.6,0-1.2,0-1.8c0-0.4,0.1-0.8,0.2-1.1l-1-0.2c-0.1,0.4-0.2,0.7-0.2,1.1
	c0,0.4,0,1,0,1.6c-0.4-0.1-0.8-0.2-1.2-0.2c-1.5-0.1-2.6,0.6-2.6,1.7c-0.1,0.7,0.4,1.4,1,1.6c0.4,0.2,0.8,0.3,1.3,0.3
	c0.7,0.1,1.4-0.1,1.9-0.6c0.3-0.3,0.5-0.8,0.5-1.2c0-0.1,0-0.2,0-0.3c0.7,0.4,1.4,1,1.9,1.7L164.6,31z M161.2,29.8
	c0,0.2,0,0.3,0,0.5c-0.1,0.8-0.5,1.2-1.5,1.1c-0.9-0.1-1.4-0.4-1.4-1c0-0.6,0.7-1,1.6-0.9C160.4,29.5,160.8,29.6,161.2,29.8z
	 M168.2,25.7l0.3,0c0.3,0,0.6,0.1,0.7,0.1c0.4,0,0.8,0,1,0.1c-0.6,2.3-1.5,4.4-2.7,6.4l1,0.5c0.6-1.2,1.2-2.4,1.6-3.7
	c0.4-1.1,0.8-2.1,1-3.2c0.7,0,1.3-0.1,2-0.1c0.3,0,0.3,0,0.4,0l0-1c-0.7,0.2-1.4,0.2-2.2,0.2c0.1-0.3,0.1-0.4,0.2-0.8
	c0.1-0.4,0.2-0.8,0.3-1.1l-1.1-0.2l0,0.2c-0.1,0.7-0.2,1.3-0.4,2c-0.3,0-0.5,0-0.7,0c-0.5,0-1-0.1-1.5-0.2L168.2,25.7z M177.3,26.9
	c-0.9-0.1-1-0.1-1.3-0.1c-1.1-0.1-2.2,0-3.3,0.2l0,1c1-0.2,2-0.3,3.1-0.2c0.5,0,1,0.1,1.4,0.2L177.3,26.9z M172.7,29.1
	c-0.5,0.5-0.9,1.1-1,1.8c-0.1,1.2,0.9,1.9,2.9,2.1c0.7,0,1.4,0,2.2,0c0.4,0,0.4,0,0.6-0.1l0-1.1c-0.9,0.2-1.8,0.3-2.7,0.2
	c-1.3-0.1-2-0.5-1.9-1.2c0-0.2,0.1-0.4,0.2-0.6c0.1-0.2,0.3-0.5,0.5-0.6L172.7,29.1z M185.3,32.8c0.2,0.3,0.4,0.6,0.4,1
	c0.7-0.1,1.4-0.2,2-0.5c1.7-0.6,2.8-2.2,2.9-4c0.2-2.5-1.5-4.3-4.2-4.5c-1.5-0.2-3,0.3-4.1,1.3c-0.9,0.9-1.4,2-1.5,3.3
	c-0.1,1.7,0.7,3.1,1.9,3.2c0.9,0.1,1.7-0.6,2.5-2.1c0.7-1.5,1.2-3.1,1.5-4.7c0.5,0,0.9,0.2,1.3,0.4c1.1,0.6,1.7,1.8,1.6,3
	c-0.1,1.3-0.9,2.5-2.1,3.1C186.8,32.6,186,32.8,185.3,32.8z M185.7,25.8c-0.3,1.5-0.7,2.9-1.4,4.2c-0.6,1.1-1.1,1.6-1.5,1.6
	c-0.6,0-1-0.9-1-2c0.1-1.4,0.9-2.7,2.1-3.3C184.5,25.9,185.1,25.8,185.7,25.8z"/>
<g id="グループ_245_1_">
	<path id="パス_24_1_" d="M8.8,84.1v15.5c0,1.5-0.1,3.1-0.2,4.6h6.8c-0.2-1.5-0.3-3.1-0.2-4.6V84.1h3.5c1.6,0,3.2,0,4.8,0.2v-5.9
		c-1.6,0.2-3.2,0.2-4.8,0.2H5.1c-1.5,0-3.1-0.1-4.6-0.2v5.9c1.5-0.2,3.1-0.2,4.6-0.2H8.8z"/>
	<path id="パス_25_1_" d="M26.9,104.2h6.6c-0.2-1.5-0.3-3-0.2-4.5v-5.9h10.3v5.9c0,1.5,0,3-0.2,4.5H50c-0.2-1.5-0.3-3-0.2-4.5
		V83.2c0-1.5,0-3,0.2-4.5h-6.6c0.2,1.5,0.3,3,0.2,4.5v5.1H33.3v-5.1c0-1.5,0.1-3,0.2-4.5h-6.6c0.2,1.5,0.3,3,0.2,4.5v16.4
		C27.2,101.1,27.1,102.6,26.9,104.2z"/>
	<path id="パス_26_1_" d="M69.3,98.9h-7.9v-5.2H68c1.5,0,3.1,0,4.6,0.2v-5.7c-1.5,0.2-3.1,0.2-4.6,0.2h-6.6V84h8
		c1.5,0,3.1,0,4.6,0.2v-5.7c-1.5,0.2-3,0.2-4.6,0.2h-9.8c-2.4,0-3.3,0-4.5-0.1c0.2,1.5,0.3,3,0.2,4.5v16.7c0,1.5,0,3-0.2,4.5
		c1.3-0.1,2.2-0.1,4.5-0.1h9.7c1.7,0,3.4,0,5.1,0.2v-5.7C72.6,98.8,70.9,98.9,69.3,98.9z"/>
	<path d="M163.9,93.9c-0.7-0.4-1.5-0.6-2.3-0.8c0,0,0,0,0,0c0,0,0,0,0,0c-0.3-0.1-0.6-0.1-0.9-0.2c0,0,0,0,0,0c0,0,0,0,0,0
		c-0.4-0.1-0.8-0.2-1.3-0.3l-0.3-0.1c-2.9-0.7-3.5-0.9-3.5-1.7c0-0.8,0.9-1.2,2.4-1.2c0.3,0,0.5,0,0.8,0c0,0,0,0,0,0c0,0,0,0,0,0
		c0.5,0.1,0.9,0.2,1.3,0.5c0,0,0,0,0,0h0.2c0,0,0,0,0,0c0,0,0,0,0,0c0,0,0,0,0,0.1c0.2,0.2,0.4,0.5,0.5,0.8c0,0,0,0,0,0h0.2
		c0,0,0,0,0,0c0,0,0,0,0,0h0.3c0,0,0,0,0,0l4.7,0c0,0,0,0,0,0c0,0,0,0,0,0c-0.1-0.7-0.3-1.4-0.6-2c0,0,0,0,0,0
		c-0.4-0.6-0.8-1.2-1.3-1.6c-0.4-0.3-0.8-0.6-1.2-0.9c-0.3-0.2-0.7-0.3-1-0.5c0,0,0,0,0,0c0,0,0,0,0,0c0,0,0,0,0,0c0,0,0,0,0,0
		c-0.3-0.1-0.6-0.2-0.9-0.3c0,0,0,0,0,0c0,0,0,0,0,0c-0.9-0.2-1.9-0.3-2.9-0.3c0,0-0.1,0-0.1,0c-0.2,0-0.3,0-0.5,0
		c-1.9,0-3.8,0.6-5.4,1.6c0,0,0,0,0,0c-0.4,0.3-0.7,0.6-1,1c0,0,0,0.1,0,0.1c0,0,0,0,0,0l0,0l-0.1,0c0,0,0,0,0,0c-0.6,0.9-1,2-0.9,3
		c-0.1,2.3,1.4,4.4,3.7,5c1.3,0.4,2.6,0.7,3.9,1c0,0,0,0,0,0c0,0,0,0,0-0.1l0,0c0,0,0,0,0,0.1l0,0c0,0,0,0,0,0l0.3,0.1
		c0.8,0.1,1.6,0.3,2.4,0.7c0.2,0.1,0.3,0.2,0.4,0.4c0,0,0,0,0,0c0,0,0,0,0,0c0,0,0,0,0,0l0,0l0.1,0l0,0c0,0,0,0,0,0.1
		c0.1,0.2,0.1,0.3,0.1,0.5c0,0.9-1,1.4-2.7,1.4c-0.4,0-0.7,0-1,0c0,0,0,0,0,0c0,0,0,0-0.1,0c-0.3,0-0.6-0.1-0.9-0.2c0,0,0,0,0,0l0,0
		c-0.4-0.2-0.8-0.4-1.1-0.8c0,0,0,0,0,0c0,0,0,0,0,0l0,0c0,0-0.1-0.1-0.1-0.1l0-0.1c0,0,0,0,0,0c-0.1-0.2-0.2-0.4-0.2-0.6
		c0,0,0,0,0,0l-2.8,0c0,0,0,0,0,0c0,0,0,0,0,0c0,0,0,0,0,0c0,0,0,0,0,0l0,0c0,0,0,0,0-0.1c0,0,0,0,0,0l-2.6,0c0,0,0,0,0,0
		c0,0,0,0,0,0c0,0,0,0,0,0c0.1,1.2,0.6,2.3,1.3,3.3c0.9,1.2,2.2,2.1,3.7,2.5c0,0,0,0,0,0c0.9,0.3,1.8,0.4,2.7,0.5c0,0,0,0,0,0l0,0
		l0,0c0,0,0,0,0,0l0.4,0c0,0,0,0,0,0c0,0,0,0,0,0c0.2,0,0.5,0,0.7,0c0,0,0,0,0.1,0l0,0c0,0,0,0,0,0c0.1,0,0.2,0,0.3,0
		c1.4,0,2.8-0.2,4.2-0.7c0,0,0,0,0,0l0,0c0,0,0,0,0,0c0.1,0,0.3-0.1,0.4-0.2c0,0,0,0,0,0c0,0,0,0,0,0c0.3-0.1,0.6-0.3,0.8-0.4l0,0
		c0.4-0.2,0.8-0.5,1.2-0.9c0.3-0.3,0.5-0.6,0.7-0.9c0,0,0,0,0,0c0,0,0,0,0,0c0.5-0.9,0.8-2,0.8-3C166.9,96.6,165.7,94.7,163.9,93.9z
		"/>
	<path id="パス_28_1_" d="M90.3,78.5h-6.4c-2.5,0-3.3,0-4.5-0.1c0.2,1.5,0.3,3,0.3,4.5v16.7c0,1.5-0.1,3-0.2,4.5
		c1.3-0.1,2.1-0.1,4.5-0.1h6.5c3.6,0,6.6-1,8.6-3.1c2.3-2.3,3.6-5.7,3.6-9.9c0-4.1-1.1-7.3-3.4-9.5C97.1,79.6,94,78.5,90.3,78.5z
		 M94.3,97c-1.2,1.2-2.8,1.7-4.5,1.6h-4.1V83.9h4c2.2,0,3.7,0.5,4.8,1.6c1.2,1.2,1.8,3.1,1.8,5.7C96.4,93.3,95.7,95.4,94.3,97
		L94.3,97z"/>
	<path id="パス_29_1_" d="M120.8,81.8c-0.4-1.1-0.8-2.2-1-3.3h-8c-0.2,1.1-0.6,2.2-1,3.3l-6.6,18.5c-0.4,1.3-0.9,2.5-1.5,3.7h7.2
		c0.1-1.1,0.4-2.2,0.8-3.3l0.8-2.6h8.7l0.8,2.6c0.3,1.1,0.6,2.2,0.7,3.3h7.2c-0.4-0.9-0.9-2.1-1.5-3.7L120.8,81.8z M112.9,93
		l2.9-9.2l2.9,9.2H112.9z"/>
	<path id="パス_30_1_" d="M141.7,81.8l-3.4,6.2l-3.4-6.2c-0.6-1-1.1-2.1-1.4-3.2h-7.8c1.2,1.7,1.9,2.8,2.5,3.7l7.1,11.6v5.7
		c0,1.5-0.1,3-0.2,4.5h6.7c-0.2-1.5-0.3-3-0.2-4.5v-5.7l7-11.6c0.4-0.7,1.6-2.4,2.5-3.7h-7.8C142.8,79.7,142.3,80.8,141.7,81.8z"/>
</g>
<g>
	<polygon points="207.9,104.6 222.7,104.6 222.7,99.6 213.8,99.6 213.8,94.1 222,94.1 222,89.1 213.8,89.1 213.8,84.6 222.7,84.6 
		222.7,79.5 207.9,79.5 	"/>
	<path d="M188,97.3l-5.5-17.8h-7.7v25.1h5.4V92.9c0-1-0.1-2.7-0.2-5.1l5.2,16.8h5.3l5.6-17.1c-0.1,1.7-0.1,2.8-0.1,3.3
		c0,0.7,0,1.3,0,1.9v11.9h5.6V79.5h-7.7L188,97.3z"/>
	<path d="M241.2,97.3l-5.5-17.8h-7.7v25.1h5.4V92.9c0-1-0.1-2.7-0.2-5.1l5.2,16.8h5.3l5.6-17.1c-0.1,1.7-0.1,2.8-0.1,3.3
		c0,0.7,0,1.3,0,1.9v11.9h5.6V79.5H247L241.2,97.3z"/>
	<path d="M271.9,79.2c-3.8,0-6.8,1.1-8.9,3.3c-2.1,2.2-3.1,5.4-3.1,9.5c0,4.1,1,7.3,3.1,9.6c2.1,2.2,5,3.4,8.9,3.4c0,0,0,0,0,0
		c3.8,0,6.8-1.1,8.9-3.4c2.1-2.2,3.1-5.4,3.1-9.5c0-4.1-1-7.3-3.1-9.5C278.7,80.3,275.8,79.2,271.9,79.2z M267.6,97.9
		c-1-1.3-1.5-3.3-1.5-5.9h0c0-2.6,0.5-4.6,1.5-5.9c1-1.3,2.6-2,4.3-1.9c3.9,0,5.7,2.6,5.7,7.8c0,5.2-1.9,7.8-5.8,7.8
		C270.2,99.9,268.6,99.2,267.6,97.9z"/>
	<path d="M305.4,91.3c0.8-1.2,1.3-2.6,1.3-4c0.2-2.2-0.8-4.4-2.5-5.8c-1.6-1.2-4.2-1.9-7.6-1.9h-7.5v25.1h5.9v-9.3l2.1,0l5.8,9.3
		h6.7l-7.3-10.8C303.6,93.2,304.6,92.4,305.4,91.3z M300.7,87.4c0.1,0.9-0.3,1.7-1,2.2c-1,0.6-2.2,0.9-3.4,0.8H295v-5.8h1.2
		c1.2-0.1,2.4,0.2,3.4,0.7C300.4,85.7,300.7,86.5,300.7,87.4z"/>
	<polygon points="325.3,79.5 320.5,89.1 315.7,79.5 309.2,79.5 317.6,95 317.6,104.6 323.5,104.6 323.5,94.9 331.8,79.5 	"/>
</g>
</svg>
