<?xml version="1.0" encoding="utf-8"?>
<!-- Generator: Adobe Illustrator 24.2.0, SVG Export Plug-In . SVG Version: 6.00 Build 0)  -->
<svg version="1.1" id="レイヤー_1" xmlns="http://www.w3.org/2000/svg" xmlns:xlink="http://www.w3.org/1999/xlink" x="0px"
	 y="0px" viewBox="0 0 520 128" style="enable-background:new 0 0 520 128;" xml:space="preserve">
<style type="text/css">
	.st0{fill:#FFEC00;}
</style>
<g id="グループ_1084" transform="translate(-425.052 -314.146)">
	<rect id="長方形_597" x="433.5" y="377.7" class="st0" width="511" height="56"/>
	<path id="パス_395" d="M546.4,424.7V315.8h-7.8l-19.7,17v9.3l19.7-17.4v100.1H546.4z M631.4,396.6v-52.6
		c0-17-11.8-29.1-28.6-29.1s-28.6,12.1-28.6,29.1v52.6c0,17,11.8,29.1,28.6,29.1S631.4,413.5,631.4,396.6z M623.6,395.8
		c0,12.9-7.2,23-20.8,23s-20.8-10.1-20.8-23v-51.1c0-12.9,7.2-22.9,20.8-22.9s20.8,10.1,20.8,22.9V395.8z M648.3,433.1v-16.7H640
		v25.1L648.3,433.1z M721.8,396.6v-52.6c0-17-11.8-29.1-28.6-29.1s-28.6,12.1-28.6,29.1v52.6c0,17,11.8,29.1,28.6,29.1
		S721.8,413.5,721.8,396.6z M714,395.8c0,12.9-7.2,23-20.8,23s-20.8-10.1-20.8-23v-51.1c0-12.9,7.2-22.9,20.8-22.9
		s20.8,10.1,20.8,22.9V395.8z M792.8,396.6v-52.6c0-17-11.8-29.1-28.6-29.1s-28.6,12.1-28.6,29.1v52.6c0,17,11.8,29.1,28.6,29.1
		S792.8,413.5,792.8,396.6L792.8,396.6z M785,395.8c0,12.9-7.2,23-20.8,23s-20.8-10.1-20.8-23v-51.1c0-12.9,7.2-22.9,20.8-22.9
		s20.8,10.1,20.8,22.9V395.8z M863.8,396.6v-52.6c0-17-11.8-29.1-28.6-29.1s-28.6,12.1-28.6,29.1v52.6c0,17,11.8,29.1,28.6,29.1
		S863.8,413.5,863.8,396.6L863.8,396.6z M856,395.8c0,12.9-7.2,23-20.8,23s-20.8-10.1-20.8-23v-51.1c0-12.9,7.2-22.9,20.8-22.9
		s20.8,10.1,20.8,22.9V395.8z"/>
	<path id="パス_397" d="M497.5,315.5H489l-27.2,54.9l-27.5-54.9h-8.7l24.9,49.6h-16.6v5.8h19.5l4.1,8.1v8.1h-23.6v5.8h23.6v31h8.2
		v-31h23.4v-5.8h-23.4v-8.1l4.1-8.1h19.3V365h-16.4L497.5,315.5z"/>
	<path id="パス_396" d="M912.8,351.6c11.6,0,16-0.4,20.7-5.1c3.3-3.3,5.1-7.9,5-12.6c0.1-4.7-1.7-9.3-5-12.6
		c-4.8-4.8-9.2-5-20.7-5s-16,0.3-20.7,5c-3.3,3.4-5.1,7.9-5,12.6c-0.1,4.7,1.7,9.2,5,12.6C896.8,351.2,901.2,351.6,912.8,351.6z
		 M912.8,346.2c-10.4,0-14.1-0.4-17.3-3.5c-2.3-2.3-3.6-5.5-3.6-8.7c-0.1-3.3,1.2-6.4,3.5-8.7c3.3-3.2,7-3.6,17.3-3.6
		c10.4,0,14.1,0.4,17.3,3.6c2.3,2.3,3.6,5.5,3.5,8.7c0.1,3.3-1.2,6.4-3.5,8.7C926.9,345.8,923.2,346.2,912.8,346.2L912.8,346.2z
		 M933.2,389.3h4.8v-31.4h-50.6v5.4h22.3v22.1h4.8v-22.2h18.6L933.2,389.3z M933.2,424.1h4.8v-31.4h-50.6v5.4h22.3v22.1h4.8v-22.2
		h18.6L933.2,424.1z"/>
</g>
</svg>
