<?xml version="1.0" encoding="utf-8"?>
<!-- Generator: Adobe Illustrator 24.2.0, SVG Export Plug-In . SVG Version: 6.00 Build 0)  -->
<svg version="1.1" id="レイヤー_1" xmlns="http://www.w3.org/2000/svg" xmlns:xlink="http://www.w3.org/1999/xlink" x="0px"
	 y="0px" viewBox="0 0 72 50" style="enable-background:new 0 0 72 50;" xml:space="preserve">
<style type="text/css">
	.st0{fill:#FFFFFF;}
	.st1{fill:none;stroke:#000000;}
	.st2{fill:none;stroke:#000000;stroke-width:0.3;}
</style>
<g id="グループ_618" transform="translate(-394.98 -12210.994)">
	<g id="グループ_477" transform="translate(-146)">
		<g id="グループ_473" transform="translate(540.98 12218.867)">
			<g id="長方形_481">
				<path class="st0" d="M6,1.2h60c2.8,0,5,2.2,5,5v4c0,2.8-2.2,5-5,5H6c-2.8,0-5-2.2-5-5v-4C1,3.4,3.2,1.2,6,1.2z"/>
				<path class="st1" d="M6,1.7h60c2.5,0,4.5,2,4.5,4.5v4c0,2.5-2,4.5-4.5,4.5H6c-2.5,0-4.5-2-4.5-4.5v-4C1.5,3.7,3.5,1.7,6,1.7z"/>
			</g>
			<path id="パス_262" d="M16.5,6.7c-0.2,0-0.4,0-0.5,0V7c0.2,0,0.4,0,0.5,0l0.9,0c0,0.4-0.1,0.8-0.3,1.2c-0.3,0.6-0.7,1-1.3,1.3
				c0.1,0.1,0.2,0.2,0.3,0.3c0.5-0.3,1-0.8,1.3-1.3c0.2-0.5,0.4-1,0.4-1.5h1.4c0,0.6,0,1.2-0.1,1.8c-0.1,0.5-0.2,0.6-0.4,0.6
				c-0.2,0-0.4-0.1-0.6-0.1C18,9.4,18,9.5,18,9.6v0.1c0.2,0.1,0.4,0.1,0.6,0.1c0.5,0,0.6-0.2,0.7-0.9c0.1-0.6,0.1-1.2,0.1-1.7
				c0-0.1,0-0.2,0-0.3l-0.2-0.2c-0.1,0-0.2,0-0.3,0l-1.2,0c0-0.1,0-0.2,0-0.4c0-0.2,0-0.4,0-0.6l-0.4,0c0,0.1,0,0.2,0,0.3
				c0,0.2,0,0.5,0,0.8L16.5,6.7z M22.6,5.7c-0.1,0.5-0.2,1-0.4,1.4c-0.2,0.7-0.5,1.3-0.8,2c-0.1,0-0.4,0-0.4,0l-0.1,0l0,0.4
				c0.1,0,0.3,0,0.4-0.1c1-0.1,2.1-0.2,3.1-0.4c0.1,0.2,0.2,0.4,0.3,0.7l0.4-0.2c-0.3-0.8-0.8-1.5-1.2-2.3l-0.3,0.2
				c0.3,0.4,0.5,0.8,0.8,1.3c-0.6,0.1-1.8,0.3-2.4,0.3c0.4-1,0.7-1.9,1-2.9C22.9,6.1,23,6,23,5.8L22.6,5.7z M29.5,9.3v0.4h0.4
				c0-0.1,0-0.2,0-0.4V6.6c0-0.1,0-0.3,0-0.4c-0.1,0-0.3,0-0.4,0h-2.7c-0.1,0-0.3,0-0.4,0c0,0.1,0,0.3,0,0.4v2.7c0,0.1,0,0.3,0,0.4
				h0.4V9.3H29.5z M29.5,9h-2.7V6.5h2.7V9z M31.3,8c0.2,0,0.4,0,0.6,0h2.9c0.2,0,0.4,0,0.6,0V7.6c-0.2,0-0.4,0-0.6,0H32
				c-0.2,0-0.4,0-0.6,0L31.3,8z M38,9.9c0-0.2,0-0.4,0-0.5V7.8c0-0.1,0-0.2,0-0.3h0c0,0,0.1,0.1,0.2,0.1c0.7,0.3,1.3,0.6,1.9,1
				l0.2-0.4c-0.7-0.4-1.5-0.8-2.2-1V6.2c0-0.2,0-0.3,0-0.5h-0.4c0,0.2,0,0.3,0,0.5v3.1c0,0.2,0,0.4,0,0.5L38,9.9z M39.2,6.1
				c0.2,0.2,0.4,0.5,0.5,0.8L40,6.7c-0.1-0.3-0.3-0.5-0.5-0.8L39.2,6.1z M39.8,5.8C40,6,40.2,6.3,40.3,6.6l0.2-0.1
				c-0.1-0.3-0.3-0.5-0.5-0.8L39.8,5.8z M43.6,7.3h-1.2V6.4c0-0.1,0-0.2,0-0.4H42c0,0.1,0,0.3,0,0.4v1c0,0.1,0,0.2,0,0.3
				c0.1,0,0.2,0,0.3,0h1.2v1.8h-1.4V8.5c0-0.1,0-0.3,0-0.4h-0.4c0,0.1,0,0.3,0,0.4v1.1c0,0.1,0,0.3,0,0.4h0.4V9.7h3.2V10h0.4
				c0-0.1,0-0.3,0-0.4V8.5c0-0.1,0-0.3,0-0.4h-0.4c0,0.1,0,0.3,0,0.4v1h-1.5V7.6h1.3c0.1,0,0.2,0,0.3,0c0-0.1,0-0.2,0-0.3v-1
				c0-0.1,0-0.3,0-0.4h-0.4c0,0.1,0,0.2,0,0.4v0.9h-1.3V6c0-0.2,0-0.3,0-0.5h-0.4c0,0.2,0,0.3,0,0.5V7.3z M49.1,6.9v0.4h-0.9
				c-0.2,0-0.3,0-0.5,0c0,0.1,0,0.3,0,0.4v0.7c0,0.1,0,0.3,0,0.4c0.2,0,0.3,0,0.5,0h0.9v0.4h-1.2c-0.2,0-0.3,0-0.5,0v0.3
				c0.2,0,0.3,0,0.5,0h1.2v0.1c0,0.2,0,0.3,0,0.5h0.4c0-0.2,0-0.3,0-0.5V9.5h1.3c0.2,0,0.3,0,0.5,0V9.2c-0.2,0-0.3,0-0.5,0h-1.3V8.8
				h0.9c0.2,0,0.3,0,0.5,0c0-0.1,0-0.3,0-0.4V7.7c0-0.1,0-0.3,0-0.4c-0.2,0-0.3,0-0.5,0h-0.9V6.9h1.2c0.1,0,0.3,0,0.4,0V6.6
				c-0.1,0-0.3,0-0.4,0h-1.2c0-0.1,0-0.2,0-0.3h-0.3c0,0.1,0,0.2,0,0.3h-1.1c-0.1,0-0.3,0-0.4,0v0.3c0.1,0,0.3,0,0.4,0L49.1,6.9z
				 M49.1,7.5v0.4h-1V7.5H49.1z M49.4,7.5h1.1v0.4h-1.1V7.5z M49.1,8.1v0.4h-1V8.1H49.1z M49.4,8.1h1.1v0.4h-1.1V8.1z M48.9,6h-1.3
				c-0.2,0-0.4,0-0.6,0c0,0.1,0,0.3,0,0.4c0,0,0,0.1,0,0.1c0,0.8,0,1.5-0.1,2.3c0,0.4-0.2,0.7-0.4,1.1c0.1,0.1,0.2,0.1,0.3,0.2
				c0.2-0.3,0.3-0.7,0.4-1.1c0.1-0.9,0.2-1.8,0.1-2.7h3.3c0.2,0,0.3,0,0.5,0V5.9c-0.2,0-0.3,0-0.5,0h-1.4V5.8c0-0.1,0-0.2,0-0.3
				h-0.4c0,0.1,0,0.2,0,0.3L48.9,6z M54,6.5h-1.4c-0.1,0-0.3,0-0.4,0c0,0.1,0,0.3,0,0.4v1.4c0,0.1,0,0.3,0,0.4h0.4V8.3H54v1.2
				c0,0.2,0,0.4,0,0.6h0.4c0-0.2,0-0.4,0-0.6V8.3h1.5v0.3h0.4c0-0.1,0-0.3,0-0.4V6.9c0-0.1,0-0.3,0-0.4c-0.1,0-0.3,0-0.4,0h-1.5V6
				c0-0.2,0-0.3,0-0.5H54c0,0.2,0,0.3,0,0.5V6.5z M54,6.8V8h-1.4V6.8H54z M54.3,8V6.8h1.5V8H54.3z"/>
		</g>
		<g id="グループ_474" transform="translate(540.98 12237.207)">
			<g id="長方形_482" transform="translate(0 0)">
				<path d="M6,1.2h60c2.8,0,5,2.2,5,5v4c0,2.8-2.2,5-5,5H6c-2.8,0-5-2.2-5-5v-4C1,3.4,3.2,1.2,6,1.2z"/>
				<path class="st1" d="M6,1.7h60c2.5,0,4.5,2,4.5,4.5v4c0,2.5-2,4.5-4.5,4.5H6c-2.5,0-4.5-2-4.5-4.5v-4C1.5,3.7,3.5,1.7,6,1.7z"/>
			</g>
			<path id="パス_263" class="st0" d="M17.1,6.1C17.1,6.1,17.1,6.1,17.1,6.1c0,0.2,0,0.4,0,0.5c-0.1,0.6-0.3,1.2-0.5,1.7
				c-0.2,0.4-0.4,0.7-0.7,1c0.1,0.1,0.2,0.2,0.3,0.3c0.8-0.9,1.2-2,1.3-3.1c0-0.1,0-0.2,0.1-0.3L17.1,6.1z M18.6,6.1
				c0,0.1,0.1,0.2,0.1,0.3c0.1,0.6,0.3,1.3,0.5,1.8c0.2,0.5,0.5,0.9,0.8,1.3c0.1-0.1,0.2-0.2,0.3-0.3c-0.6-0.6-1-1.3-1.1-2.1
				c-0.1-0.4-0.2-0.8-0.2-1.2L18.6,6.1z M24.5,5.7c-0.3,0.4-0.6,0.7-1,0.9c-0.8,0.6-1.7,1.1-2.6,1.3c0.1,0.1,0.2,0.2,0.2,0.3
				c0.7-0.2,1.3-0.5,1.9-0.9v1.9c0,0.2,0,0.3,0,0.5h0.4c0-0.2,0-0.4,0-0.5V7.2c0.4-0.3,0.8-0.6,1.2-1C24.7,6.1,24.7,6,24.8,6
				L24.5,5.7z M27,7.1l-0.6,0.1c-0.1,0-0.3,0-0.4,0c0,0-0.1,0-0.1,0l0,0.4c0.2,0,0.3-0.1,0.5-0.1L27,7.4v1.2c0,0.5,0,0.7,0.2,0.8
				c0.1,0.2,0.4,0.2,1,0.2c0.4,0,0.8,0,1.2-0.1c0.1,0,0.2,0,0.3,0l0-0.4c-0.5,0.1-1,0.2-1.5,0.2c-0.4,0-0.6,0-0.7-0.1
				S27.3,9,27.3,8.6V7.4l1.9-0.3c0.1,0,0.1,0,0.2,0c-0.3,0.5-0.7,0.9-1.1,1.2c0.1,0.1,0.2,0.1,0.3,0.2c0.5-0.3,1-0.8,1.2-1.4l0-0.1
				c0,0,0,0,0-0.1l-0.2-0.2c-0.1,0-0.2,0.1-0.3,0.1l-2,0.3V6.3c0-0.2,0-0.3,0-0.5h-0.4c0,0.2,0,0.3,0,0.5L27,7.1z M29.1,5.7
				c0.2,0.2,0.4,0.5,0.5,0.8l0.2-0.2c-0.1-0.3-0.3-0.5-0.5-0.8L29.1,5.7z M29.7,5.5C29.9,5.7,30,6,30.2,6.3l0.2-0.1
				c-0.1-0.3-0.3-0.5-0.5-0.8L29.7,5.5z M31.6,7.1c0.2,0.3,0.4,0.7,0.5,1.1l0.3-0.1c-0.1-0.4-0.3-0.8-0.5-1.1L31.6,7.1z M32.6,6.9
				C32.8,7.2,33,7.6,33.1,8l0.3-0.1c-0.1-0.4-0.3-0.7-0.5-1.1L32.6,6.9z M34.4,6.9L34.4,6.9c0,0.2,0,0.3-0.1,0.4
				c-0.1,0.4-0.2,0.7-0.4,1.1c-0.4,0.6-0.9,1.1-1.6,1.3c0.1,0.1,0.2,0.2,0.2,0.3c0.7-0.3,1.3-0.8,1.7-1.4c0.2-0.4,0.3-0.7,0.4-1.1
				c0-0.1,0.1-0.3,0.1-0.4L34.4,6.9z M37.8,9.9c0-0.2,0-0.4,0-0.5V7.8c0-0.1,0-0.2,0-0.3h0c0,0,0.1,0.1,0.2,0.1
				c0.7,0.3,1.3,0.6,1.9,1L40,8.2c-0.7-0.4-1.5-0.8-2.2-1V6.2c0-0.2,0-0.3,0-0.5h-0.4c0,0.2,0,0.3,0,0.5v3.1c0,0.2,0,0.4,0,0.5
				L37.8,9.9z M43.4,7.3h-1.2V6.4c0-0.1,0-0.2,0-0.4h-0.4c0,0.1,0,0.3,0,0.4v1c0,0.1,0,0.2,0,0.3c0.1,0,0.2,0,0.3,0h1.2v1.8h-1.4
				V8.5c0-0.1,0-0.3,0-0.4h-0.4c0,0.1,0,0.3,0,0.4v1.1c0,0.1,0,0.3,0,0.4h0.4V9.7h3.2V10h0.4c0-0.1,0-0.3,0-0.4V8.5
				c0-0.1,0-0.3,0-0.4h-0.4c0,0.1,0,0.3,0,0.4v0.9h-1.5V7.6H45c0.1,0,0.2,0,0.3,0c0-0.1,0-0.2,0-0.3v-1c0-0.1,0-0.3,0-0.4H45
				c0,0.1,0,0.2,0,0.4v0.9h-1.3V6c0-0.2,0-0.3,0-0.5h-0.4c0,0.1,0,0.3,0,0.5L43.4,7.3z M48.9,6.9v0.4H48c-0.2,0-0.3,0-0.5,0
				c0,0.1,0,0.3,0,0.4v0.7c0,0.1,0,0.3,0,0.4c0.2,0,0.3,0,0.5,0h0.9v0.4h-1.2c-0.2,0-0.3,0-0.5,0v0.3c0.2,0,0.3,0,0.5,0h1.2v0.1
				c0,0.2,0,0.3,0,0.5h0.4c0-0.2,0-0.3,0-0.5V9.5h1.3c0.2,0,0.3,0,0.5,0V9.2c-0.2,0-0.3,0-0.5,0h-1.3V8.8h0.9c0.2,0,0.3,0,0.5,0
				c0-0.1,0-0.3,0-0.4V7.7c0-0.1,0-0.3,0-0.4c-0.2,0-0.3,0-0.5,0h-0.9V6.9h1.2c0.1,0,0.3,0,0.4,0V6.6c-0.1,0-0.3,0-0.4,0h-1.2
				c0-0.1,0-0.2,0-0.3h-0.3c0,0.1,0,0.2,0,0.3h-1.1c-0.1,0-0.3,0-0.4,0v0.3c0.1,0,0.3,0,0.4,0L48.9,6.9z M48.9,7.5v0.4h-1V7.5H48.9z
				 M49.2,7.5h1.1v0.4h-1.1V7.5z M48.9,8.1v0.4h-1V8.1H48.9z M49.2,8.1h1.1v0.4h-1.1V8.1z M48.7,6h-1.3c-0.2,0-0.4,0-0.6,0
				c0,0.1,0,0.3,0,0.4c0,0,0,0.1,0,0.1c0,0.8,0,1.5-0.1,2.3c0,0.4-0.2,0.7-0.4,1.1c0.1,0.1,0.2,0.1,0.3,0.2c0.2-0.3,0.3-0.7,0.4-1.1
				c0.1-0.9,0.2-1.8,0.1-2.7h3.3c0.2,0,0.3,0,0.5,0V5.9c-0.2,0-0.3,0-0.5,0H49V5.8c0-0.1,0-0.2,0-0.3h-0.4c0,0.1,0,0.2,0,0.3L48.7,6
				z M53.8,6.5h-1.4c-0.1,0-0.3,0-0.4,0c0,0.1,0,0.3,0,0.4v1.4c0,0.1,0,0.3,0,0.4h0.4V8.3h1.4v1.2c0,0.2,0,0.4,0,0.6h0.4
				c0-0.2,0-0.4,0-0.6V8.3h1.5v0.3H56c0-0.1,0-0.3,0-0.4V6.9c0-0.1,0-0.3,0-0.4c-0.1,0-0.3,0-0.4,0h-1.5V6c0-0.2,0-0.3,0-0.5h-0.4
				c0,0.2,0,0.3,0,0.5L53.8,6.5z M53.8,6.8V8h-1.4V6.8L53.8,6.8z M54.1,8V6.8h1.5V8H54.1z"/>
		</g>
		<g id="グループ_475" transform="translate(544.009 12211.114)">
			<line id="線_4621" class="st2" x1="1.4" y1="1.2" x2="65" y2="48.5"/>
			<line id="線_4622" class="st2" x1="1" y1="48.6" x2="65" y2="1.2"/>
		</g>
	</g>
</g>
</svg>
