<?xml version="1.0" encoding="utf-8"?>
<!-- Generator: Adobe Illustrator 24.2.0, SVG Export Plug-In . SVG Version: 6.00 Build 0)  -->
<svg version="1.1" id="レイヤー_1" xmlns="http://www.w3.org/2000/svg" xmlns:xlink="http://www.w3.org/1999/xlink" x="0px"
	 y="0px" viewBox="0 0 46 46" style="enable-background:new 0 0 46 46;" xml:space="preserve">
<style type="text/css">
	.st0{fill:none;}
	.st1{fill:none;stroke:#000000;stroke-width:0.5;}
</style>
<g id="グループ_476" transform="translate(-705 -12214)">
	<path id="パス_264" d="M721.3,12233.4h-3.2c-0.4,0-0.8,0-1.2-0.1c0,0.3,0.1,0.6,0,0.8v0.6c0,0.3,0,0.6-0.1,0.9h0.8v-1.7h2.5
		c0,0.7-0.2,1.3-0.6,1.8c-0.8,0.8-1.7,1.3-2.8,1.4c0.2,0.2,0.4,0.4,0.5,0.7c1.1-0.3,2.1-0.8,2.9-1.6c0.5-0.6,0.8-1.5,0.8-2.3h1.5
		v2.5c0,0.6,0.3,0.7,1.9,0.7c2,0,2.2-0.1,2.3-1.5c-0.3-0.1-0.5-0.1-0.7-0.3c0,1-0.1,1-1.6,1c-0.3,0-0.6,0-0.9,0
		c-0.2,0-0.2-0.1-0.2-0.3v-2.2h2.9v1.2h0.8c0-0.3-0.1-0.6-0.1-0.8v-0.3c0-0.3,0-0.6,0-0.8c-0.4,0-0.8,0.1-1.2,0.1h-3.5v-0.6
		c0-0.3,0-0.6,0.1-0.9h-0.9c0.1,0.3,0.1,0.6,0.1,0.9V12233.4z M721.3,12239.3v2.4h-3.4c-0.4,0-0.9,0-1.3-0.1v0.9
		c0.4-0.1,0.9-0.1,1.3-0.1h7.8c0.4,0,0.9,0,1.3,0.1v-0.9c-0.4,0.1-0.9,0.1-1.3,0.1h-3.6v-2.4h2.6c0.4,0,0.8,0,1.2,0.1v-0.8
		c-0.4,0.1-0.8,0.1-1.2,0.1h-5.8c-0.4,0-0.8,0-1.2-0.1v0.8c0.4-0.1,0.8-0.1,1.2-0.1H721.3z M736.3,12236.9v0.6h-0.7
		c-0.3,0-0.7,0-1,0c0,0.2,0,0.5,0,1.1v0.8c0,0.3,0,0.6,0,0.8c0.4,0,0.6,0,1.1,0h0.4c-0.5,0.6-1.2,1.1-2,1.4c0.2,0.1,0.3,0.3,0.4,0.5
		c0.8-0.4,1.4-0.9,1.9-1.6c0,0.3,0,0.5,0,0.8v0.8c0,0.2,0,0.5-0.1,0.7h0.7c0-0.2-0.1-0.5,0-0.7v-0.8c0-0.2,0-0.3-0.1-0.8
		c0.5,0.6,1.1,1.1,1.8,1.5c0.1-0.2,0.2-0.4,0.4-0.5c-0.7-0.3-1.3-0.6-1.8-1.2h0.5c0.3,0,0.7,0,0.8,0l0.2,0c0-0.3,0-0.4,0-0.9v-1.1
		c0-0.3,0-0.5,0-0.8c-0.3,0-0.7,0-1,0h-0.9v-0.6h1.3c0.3,0,0.7,0,1,0.1v-0.7c-0.3,0-0.7,0.1-1,0.1h-1.3v-0.1c0-0.2,0-0.4,0-0.6h-0.7
		c0,0.2,0,0.4,0,0.6v0.1h-1.2c-0.3,0-0.7,0-1-0.1v0.7c0.3,0,0.7-0.1,1,0L736.3,12236.9z M736.3,12238v0.6h-1.2v-0.6H736.3z
		 M736.9,12238h1.3v0.6h-1.3V12238z M736.3,12239v0.7h-1.2v-0.7H736.3z M736.9,12239h1.3v0.7h-1.3V12239z M731.1,12234.4h-0.5
		c-0.3,0-0.6,0-0.8,0v0.7c0.3,0,0.6-0.1,0.8-0.1h0.4c-0.1,0.5-0.2,0.9-0.3,1.4c-0.3,0.9-0.7,1.7-1.2,2.5c0.2,0.2,0.4,0.4,0.5,0.6
		c0.6-1,1-2.2,1.2-3.3c-0.1,1.6-0.1,1.6-0.1,2.1v3.3c0,0.5,0,0.9-0.1,1.4h0.8c-0.1-0.5-0.1-0.9-0.1-1.4v-3.7c0-0.4,0-0.9,0-1.8
		c0.2,0.6,0.5,1.2,0.8,1.7c0.1-0.2,0.3-0.4,0.4-0.6c-0.5-0.7-0.9-1.4-1.1-2.2h0.2c0.3,0,0.5,0,0.8,0v-0.7c-0.3,0-0.5,0.1-0.8,0h-0.3
		v-1.1c0-0.4,0-0.8,0.1-1.2H731c0.1,0.4,0.1,0.8,0.1,1.2L731.1,12234.4z M733.8,12242.8c-0.1-0.4-0.1-0.9-0.1-1.3v-5.8h1.4
		c0.5,0,0.9,0,1.1,0c0-0.3,0-0.6,0-1.1v-1.1c0-0.5,0-0.8,0-1.1c-0.3,0-0.7,0.1-1,0h-1.1c-0.4,0-0.7,0-1.1,0c0,0.4,0,0.8,0,1.3v7.8
		c0,0.4,0,0.9-0.1,1.3H733.8z M735.6,12233v0.8h-1.9v-0.8H735.6z M735.6,12234.3v0.8h-1.9v-0.9L735.6,12234.3z M740.3,12233.7
		c0-0.4,0-0.9,0.1-1.3c-0.4,0-0.8,0.1-1.1,0h-1.2c-0.4,0-0.8,0-1.1,0c0,0.3,0,0.7,0,1.1v1.1c0,0.4,0,0.7,0,1.1c0.3,0,0.7,0,1.1,0
		h1.5v6c0,0.3-0.1,0.3-0.5,0.3c-0.3,0-0.7,0-1-0.1c0.1,0.2,0.2,0.5,0.2,0.7c0.3,0,0.7,0,0.8,0c0.9,0,1.2-0.2,1.2-0.9L740.3,12233.7z
		 M737.6,12233h2v0.8h-2L737.6,12233z M737.6,12234.3h2v0.8h-2L737.6,12234.3z"/>
	<g id="楕円形_13" transform="translate(705 12214)">
		<circle class="st0" cx="23" cy="23" r="22"/>
		<circle class="st1" cx="23" cy="23" r="21.8"/>
	</g>
</g>
</svg>
