<?xml version="1.0" encoding="utf-8"?>
<!-- Generator: Adobe Illustrator 24.2.0, SVG Export Plug-In . SVG Version: 6.00 Build 0)  -->
<svg version="1.1" id="レイヤー_1" xmlns="http://www.w3.org/2000/svg" xmlns:xlink="http://www.w3.org/1999/xlink" x="0px"
	 y="0px" viewBox="0 0 268 74" style="enable-background:new 0 0 268 74;" xml:space="preserve">
<style type="text/css">
	.st0{fill:#0D0002;}
</style>
<g id="グループ_616" transform="translate(-975.53 -6746.357)">
	<path id="パス_262" class="st0" d="M1151.5,6775.3v-4.5h-9.4l3.6-23h-5l-3.6,23h-17.5l3.7-23h-5.2l-3.6,23H1104v4.5h9.9
		l-2.5,15.3h-10.3v4.4h9.6l-3.8,24h5.1l3.7-24h17.6l-3.9,24h5.1l3.8-24h10.3v-4.4h-9.6l2.5-15.3H1151.5z M1133.9,6790.6h-17.5
		l2.5-15.3h17.5L1133.9,6790.6z M1196,6800.6v-34.4c0-11.1-7.7-19-18.7-19s-18.7,7.9-18.7,19v34.4c0,11.1,7.7,19,18.7,19
		S1196,6811.7,1196,6800.6z M1190.9,6800.1c0,8.4-4.7,15-13.6,15s-13.6-6.6-13.6-15v-33.4c0-8.4,4.7-15,13.6-15s13.6,6.6,13.6,15
		V6800.1z M1242.7,6800c0-9.1-3.5-15.1-11.5-17.8c7.2-3.1,10.1-8.6,10.1-16.2c0-11.5-7.7-18.9-18.9-18.9c-10.4,0-18.2,6.3-19.3,17.5
		h5.1c0.9-8,5.8-13,14.2-13c7.7,0,13.8,5.1,13.8,14.4c0,9.2-4.5,14.3-14.1,14.3h-1.2v4.5h1.2c10.9,0,15.5,5.6,15.5,15.2
		c0,9.5-6.6,15.2-15.1,15.2c-7.5,0-14.4-3.8-15.2-13.5h-5.1c0.8,12.3,9.2,18,20.3,18C1234,6819.7,1242.7,6812.7,1242.7,6800z"/>
	<path id="パス_263" d="M985,6751.8l0-0.9l-8.6,0l0,0.9l3.8,0l0,12l1,0l0-12L985,6751.8z M991.1,6756.4l0.7-0.7
		c-0.5-0.6-1.3-0.9-2.1-0.8c-1,0-2,0.4-2.5,1.3l0-1.2l-0.9,0l0,8.7l0.9,0l0-5.3c-0.1-1.3,0.8-2.5,2.2-2.6c0.1,0,0.1,0,0.2,0
		C990.1,6755.7,990.7,6756,991.1,6756.4z M999.4,6763.7l0-5.9c0-1.8-1.1-2.8-3.4-2.9c-1.2-0.1-2.4,0.4-3.1,1.3l0.7,0.6
		c0.5-0.8,1.5-1.2,2.4-1.1c1.8,0,2.4,0.7,2.4,2.1l0,1l-2.8,0c-1.9,0-3,0.9-3,2.5c0,0.6,0.2,1.2,0.6,1.7c0.7,0.6,1.6,0.9,2.6,0.8
		c1,0.1,2-0.3,2.6-1l0,0.9L999.4,6763.7z M998.5,6760.7c0.1,0.6-0.1,1.2-0.5,1.7c-0.6,0.5-1.4,0.7-2.2,0.7c-1.6,0-2.3-0.5-2.3-1.7
		c0-1.2,0.7-1.7,2.2-1.7l2.7,0L998.5,6760.7z M1008.6,6755.1l-1,0l-2.6,7.6l-2.6-7.6l-1,0l3.1,8.7l0.9,0L1008.6,6755.1z
		 M1016.8,6759.6l0-0.4c0-2.7-1.3-4.2-3.5-4.2c-2.2,0-3.5,1.6-3.5,4.4c0,2.9,1.3,4.4,3.7,4.5c1.2,0.1,2.3-0.4,3.1-1.3l-0.7-0.5
		c-0.6,0.7-1.5,1.1-2.4,1c-1.9,0-2.8-1.2-2.8-3.4L1016.8,6759.6z M1015.9,6758.9l-5.1,0c0-0.6,0.1-1.1,0.3-1.6
		c0.4-0.9,1.3-1.5,2.3-1.5c1,0,1.9,0.6,2.2,1.5C1015.8,6757.8,1015.9,6758.3,1015.9,6758.9z M1022.6,6763.8l0-0.8l-0.6,0
		c-1,0-1.3-0.5-1.3-1.5l0-10.5l-0.9,0l0,10.6c0,1.4,0.7,2.3,2.1,2.3L1022.6,6763.8z M1025.9,6763.8l0-8.7l-0.9,0l0,8.7
		L1025.9,6763.8z M1026,6752.1l0-1.1l-1.1,0l0,1.1L1026,6752.1z M1036,6763.8l0-5.5c0.1-0.9-0.3-1.8-0.9-2.4
		c-0.6-0.6-1.5-0.9-2.3-0.8c-1,0-1.9,0.4-2.6,1.1l0-1l-0.9,0l0,8.7l0.9,0l0-5.4c-0.2-1.3,0.7-2.4,2-2.6c0.2,0,0.3,0,0.5,0
		c1.6,0,2.4,0.9,2.4,2.6l0,5.4L1036,6763.8z M1045.6,6764.3l0-9.2l-0.9,0l0,1.1c-0.6-0.8-1.6-1.3-2.6-1.2c-0.8,0-1.5,0.2-2.1,0.8
		c-0.8,1-1.2,2.4-1.1,3.7c-0.1,1.3,0.3,2.6,1.1,3.7c0.6,0.5,1.3,0.8,2.1,0.8c1,0.1,2-0.4,2.6-1.2l0,1.5c0,1.7-0.8,3-2.6,3
		c-0.9,0-1.7-0.3-2.2-1l-0.6,0.6c0.7,0.8,1.8,1.2,2.9,1.2c1.9,0.1,3.5-1.4,3.6-3.3C1045.7,6764.6,1045.7,6764.5,1045.6,6764.3z
		 M1044.7,6759.5c0,1.8-0.3,3.6-2.5,3.6c-2.1,0-2.4-1.8-2.4-3.6c0-1.8,0.3-3.6,2.5-3.6S1044.7,6757.7,1044.7,6759.5z M1062.5,6754.8
		c0.1-2-1.4-3.6-3.4-3.7c-0.2,0-0.3,0-0.5,0l-4.7,0l0,12.8l1,0l0-5.4l3.7,0c2,0.2,3.7-1.3,3.9-3.2
		C1062.6,6755.1,1062.6,6754.9,1062.5,6754.8L1062.5,6754.8z M1061.6,6754.8c0,1.9-1.2,2.8-3,2.8l-3.6,0l0-5.7l3.6,0
		C1060.4,6751.9,1061.6,6752.8,1061.6,6754.8L1061.6,6754.8z M1067.9,6763.9l0-0.8l-0.6,0c-1,0-1.3-0.5-1.3-1.5l0-10.5l-0.9,0
		l0,10.6c0,1.4,0.7,2.3,2.1,2.3L1067.9,6763.9z M1076.3,6763.9l0-5.9c0-1.8-1.1-2.8-3.4-2.9c-1.2-0.1-2.4,0.4-3.1,1.3l0.7,0.6
		c0.5-0.8,1.5-1.2,2.4-1.1c1.8,0,2.4,0.7,2.4,2.1l0,1l-2.8,0c-1.9,0-3,0.9-3,2.5c0,0.6,0.2,1.2,0.6,1.7c0.7,0.6,1.6,0.9,2.6,0.8
		c1,0.1,2-0.3,2.6-1l0,0.9L1076.3,6763.9z M1075.4,6760.9c0.1,0.6-0.1,1.2-0.5,1.7c-0.6,0.5-1.4,0.7-2.2,0.7c-1.6,0-2.3-0.5-2.3-1.7
		c0-1.2,0.7-1.7,2.2-1.7l2.7,0L1075.4,6760.9z M1086.4,6764l0-5.5c0.1-0.9-0.3-1.8-0.9-2.4c-0.6-0.6-1.5-0.9-2.3-0.8
		c-1,0-1.9,0.4-2.6,1.1l0-1l-0.9,0l0,8.7l0.9,0l0-5.4c-0.2-1.3,0.7-2.4,2-2.6c0.2,0,0.3,0,0.5,0c1.6,0,2.4,0.9,2.4,2.6l0,5.4
		L1086.4,6764z"/>
</g>
</svg>
