<?xml version="1.0" encoding="utf-8"?>
<!-- Generator: Adobe Illustrator 24.2.0, SVG Export Plug-In . SVG Version: 6.00 Build 0)  -->
<svg version="1.1" id="レイヤー_1" xmlns="http://www.w3.org/2000/svg" xmlns:xlink="http://www.w3.org/1999/xlink" x="0px"
	 y="0px" viewBox="0 0 85 68" style="enable-background:new 0 0 85 68;" xml:space="preserve">
<style type="text/css">
	.st0{fill:#0D0002;}
</style>
<g id="グループ_618" transform="translate(-255.963 -3567.859)">
	<path id="パス_263" class="st0" d="M264.1,3620l-2.3,14.6h3.4l2.3-14.6h8l-2.3,14.6h3.4l2.3-14.6h7.7v-3.1h-7.2l1.7-11h7.7v-3.1
		h-7.2l2-13.1h-3.3l-2.1,13.1h-8l2.1-13.1h-3.4l-2.1,13.1h-8v3.1h7.5l-1.7,11h-8v3.1H264.1z M275.9,3616.9h-8l1.7-11h8L275.9,3616.9
		z M323.3,3623.9v-20.6c0-6.7-4.6-11.4-11.2-11.4s-11.2,4.7-11.2,11.4v20.6c0,6.7,4.6,11.4,11.2,11.4S323.3,3630.6,323.3,3623.9z
		 M320.2,3623.6c0,5-2.8,9-8.2,9s-8.2-4-8.2-9v-20c0-5,2.8-9,8.2-9s8.2,4,8.2,9V3623.6z M340.3,3635v-42.7h-3.1l-7.7,6.7v3.7
		l7.7-6.8v39.2H340.3z"/>
	<path id="パス_262" d="M264.9,3569.1l0-0.6l-6.4,0l0,0.6l2.8,0l0,8.9l0.7,0l0-8.9L264.9,3569.1z M269.4,3572.5l0.5-0.5
		c-0.4-0.4-1-0.7-1.6-0.6c-0.8,0-1.5,0.3-1.9,0.9l0-0.9l-0.7,0l0,6.5l0.7,0l0-4c-0.1-1,0.6-1.9,1.6-1.9c0,0,0.1,0,0.1,0
		C268.7,3572,269.1,3572.2,269.4,3572.5z M275.6,3578l0-4.4c0-1.4-0.8-2.1-2.5-2.1c-0.9-0.1-1.8,0.3-2.3,1l0.5,0.4
		c0.4-0.6,1.1-0.9,1.8-0.8c1.3,0,1.8,0.6,1.8,1.6l0,0.7l-2.1,0c-1.4,0-2.3,0.7-2.3,1.9c0,0.5,0.2,0.9,0.5,1.3
		c0.5,0.5,1.2,0.7,1.9,0.6c0.7,0.1,1.5-0.2,2-0.7l0,0.6L275.6,3578z M274.9,3575.7c0,0.4-0.1,0.9-0.4,1.2c-0.4,0.4-1,0.6-1.6,0.5
		c-1.2,0-1.7-0.4-1.7-1.3c0-0.9,0.6-1.3,1.7-1.3l2,0L274.9,3575.7z M282.4,3571.5l-0.8,0l-2,5.7l-1.9-5.7l-0.8,0l2.3,6.5l0.7,0
		L282.4,3571.5z M288.6,3574.9l0-0.3c0-2-1-3.2-2.6-3.2s-2.6,1.2-2.6,3.3c0,2.2,1,3.3,2.7,3.3c0.9,0,1.7-0.3,2.3-1l-0.5-0.4
		c-0.4,0.5-1.1,0.8-1.8,0.8c-1.4,0-2.1-0.9-2.1-2.6L288.6,3574.9z M287.9,3574.4l-3.8,0c0-0.4,0.1-0.8,0.2-1.2
		c0.3-0.7,1-1.1,1.7-1.1c0.7,0,1.4,0.4,1.7,1.1C287.8,3573.5,287.9,3574,287.9,3574.4L287.9,3574.4z M292.9,3578l0-0.6l-0.5,0
		c-0.8,0-1-0.4-1-1.1l0-7.9l-0.7,0l0,7.9c0,1,0.5,1.7,1.5,1.7L292.9,3578z M295.3,3578l0-6.5l-0.7,0l0,6.5L295.3,3578z
		 M295.4,3569.3l0-0.8l-0.8,0l0,0.8L295.4,3569.3z M302.9,3578l0-4.1c0-0.7-0.2-1.3-0.7-1.8c-0.5-0.4-1.1-0.7-1.7-0.6
		c-0.7,0-1.4,0.3-1.9,0.8l0-0.8l-0.7,0l0,6.5l0.7,0l0-4c-0.1-0.9,0.5-1.8,1.5-1.9c0.1,0,0.2,0,0.4,0c1.2,0,1.8,0.7,1.8,1.9l0,4
		L302.9,3578z M310,3578.4l0-6.8l-0.7,0l0,0.8c-0.4-0.6-1.2-1-1.9-0.9c-0.6,0-1.1,0.2-1.6,0.6c-0.6,0.8-0.9,1.8-0.8,2.7
		c-0.1,1,0.2,2,0.8,2.7c0.4,0.4,1,0.6,1.6,0.6c0.8,0.1,1.5-0.3,1.9-0.9l0,1.2c0,1.3-0.6,2.2-2,2.2c-0.6,0-1.3-0.2-1.7-0.7l-0.5,0.5
		c0.5,0.6,1.3,0.9,2.1,0.9c1.4,0.1,2.6-1,2.7-2.5C310.1,3578.6,310,3578.5,310,3578.4z M309.4,3574.8c0,1.3-0.2,2.7-1.8,2.7
		s-1.8-1.4-1.8-2.7c0-1.3,0.2-2.7,1.8-2.7S309.4,3573.5,309.4,3574.8z M322.6,3571.3c0.1-1.5-1.1-2.7-2.5-2.8c-0.1,0-0.2,0-0.3,0
		l-3.5,0l0,9.5l0.7,0l0-4l2.8,0c1.5,0.1,2.7-0.9,2.9-2.4C322.6,3571.5,322.6,3571.4,322.6,3571.3z M321.9,3571.3
		c0.1,1.1-0.7,2-1.8,2.1c-0.1,0-0.3,0-0.4,0l-2.7,0l0-4.2l2.7,0c1.1-0.1,2.1,0.6,2.2,1.7C321.9,3571,321.9,3571.2,321.9,3571.3z
		 M326.6,3578.1l0-0.6l-0.5,0c-0.8,0-1-0.4-1-1.1l0-7.9l-0.7,0l0,7.9c0,1,0.5,1.7,1.5,1.7L326.6,3578.1z M332.8,3578.1l0-4.4
		c0-1.4-0.8-2.1-2.5-2.1c-0.9-0.1-1.8,0.3-2.3,1l0.5,0.4c0.4-0.6,1.1-0.9,1.8-0.8c1.3,0,1.8,0.6,1.8,1.6l0,0.7l-2.1,0
		c-1.4,0-2.3,0.7-2.3,1.9c0,0.5,0.2,0.9,0.5,1.3c0.5,0.5,1.2,0.7,1.9,0.6c0.7,0.1,1.5-0.2,2-0.7l0,0.6L332.8,3578.1z M332.1,3575.9
		c0,0.4-0.1,0.9-0.4,1.2c-0.4,0.4-1,0.6-1.6,0.5c-1.2,0-1.7-0.4-1.7-1.3c0-0.9,0.6-1.3,1.7-1.3l2,0L332.1,3575.9z M340.3,3578.1
		l0-4.1c0-0.7-0.2-1.3-0.7-1.8c-0.5-0.4-1.1-0.6-1.7-0.6c-0.7,0-1.4,0.3-1.9,0.8l0-0.8l-0.7,0l0,6.5l0.7,0l0-4
		c-0.1-0.9,0.5-1.8,1.5-1.9c0.1,0,0.2,0,0.4,0c1.2,0,1.8,0.7,1.8,1.9l0,4L340.3,3578.1z"/>
</g>
</svg>
