<?xml version="1.0" encoding="utf-8"?>
<!-- Generator: Adobe Illustrator 24.2.0, SVG Export Plug-In . SVG Version: 6.00 Build 0)  -->
<svg version="1.1" id="レイヤー_1" xmlns="http://www.w3.org/2000/svg" xmlns:xlink="http://www.w3.org/1999/xlink" x="0px"
	 y="0px" viewBox="0 0 85 68" style="enable-background:new 0 0 85 68;" xml:space="preserve">
<style type="text/css">
	.st0{fill:#0D0002;}
</style>
<g id="グループ_617" transform="translate(-261.455 -5507.887)">
	<path id="パス_262" class="st0" d="M292.3,5548.6v-2.7h-5.6l2.2-13.8h-3l-2.2,13.8h-10.5l2.2-13.8h-3.1l-2.2,13.8h-6.3v2.7h5.9
		l-1.5,9.2H262v2.6h5.8l-2.3,14.4h3.1l2.2-14.4h10.6l-2.3,14.4h3.1l2.3-14.4h6.2v-2.6h-5.8l1.5-9.2H292.3z M281.7,5557.8h-10.5
		l1.5-9.2h10.5L281.7,5557.8z M318.4,5563.8v-20.6c0-6.7-4.6-11.4-11.2-11.4s-11.2,4.7-11.2,11.4v20.6c0,6.7,4.6,11.4,11.2,11.4
		S318.4,5570.5,318.4,5563.8z M315.3,5563.5c0,5-2.8,9-8.2,9s-8.2-4-8.2-9v-20c0-5,2.8-9,8.2-9s8.2,4,8.2,9V5563.5z M345.9,5574.9
		v-2.7h-19l16-20.9c2-2.3,3-5.2,2.9-8.2c0-6.7-4.4-11.2-11.3-11.2c-7,0-11.3,4.9-11.3,11.2h3.1c0-6,3.8-8.5,8.2-8.5
		c5.2,0,8.2,3.4,8.2,8.5c0,2.4-0.8,4.8-2.4,6.7l-17.2,22.5v2.7H345.9z"/>
	<path id="パス_263" d="M269.3,5509.2l0-0.6l-6.4,0l0,0.6l2.8,0l0,8.9l0.7,0l0-8.9L269.3,5509.2z M273.8,5512.7l0.5-0.5
		c-0.4-0.4-1-0.7-1.6-0.6c-0.8,0-1.5,0.3-1.9,0.9l0-0.9l-0.7,0l0,6.5l0.7,0l0-4c-0.1-1,0.6-1.8,1.6-1.9c0,0,0.1,0,0.1,0
		C273.1,5512.1,273.5,5512.3,273.8,5512.7z M280,5518.1l0-4.4c0-1.4-0.8-2.1-2.5-2.1c-0.9-0.1-1.8,0.3-2.3,1l0.5,0.4
		c0.4-0.6,1.1-0.9,1.8-0.8c1.3,0,1.8,0.6,1.8,1.6l0,0.7l-2.1,0c-1.4,0-2.3,0.7-2.3,1.9c0,0.5,0.2,0.9,0.5,1.3
		c0.5,0.5,1.2,0.7,1.9,0.6c0.7,0.1,1.5-0.2,2-0.7l0,0.6L280,5518.1z M279.3,5515.9c0,0.4-0.1,0.9-0.4,1.2c-0.4,0.4-1,0.6-1.6,0.5
		c-1.2,0-1.7-0.4-1.7-1.3c0-0.9,0.6-1.3,1.7-1.3l2,0L279.3,5515.9z M286.8,5511.7l-0.8,0l-2,5.7l-1.9-5.7l-0.8,0l2.3,6.5l0.7,0
		L286.8,5511.7z M293,5515.1l0-0.3c0-2-1-3.2-2.6-3.2s-2.6,1.2-2.6,3.3c0,2.2,1,3.3,2.7,3.3c0.9,0,1.7-0.3,2.3-1l-0.5-0.4
		c-0.4,0.5-1.1,0.8-1.8,0.8c-1.4,0-2.1-0.9-2.1-2.6L293,5515.1z M292.3,5514.5l-3.8,0c0-0.4,0.1-0.8,0.2-1.2c0.3-0.7,1-1.1,1.7-1.1
		c0.7,0,1.4,0.4,1.7,1.1C292.2,5513.7,292.3,5514.1,292.3,5514.5L292.3,5514.5z M297.3,5518.2l0-0.6l-0.5,0c-0.8,0-1-0.4-1-1.1
		l0-7.9l-0.7,0l0,7.9c0,1,0.5,1.7,1.5,1.7L297.3,5518.2z M299.7,5518.2l0-6.5l-0.7,0l0,6.5L299.7,5518.2z M299.8,5509.5l0-0.8
		l-0.8,0l0,0.8L299.8,5509.5z M307.3,5518.2l0-4.1c0-0.7-0.2-1.3-0.7-1.8c-0.5-0.4-1.1-0.7-1.7-0.6c-0.7,0-1.4,0.3-1.9,0.8l0-0.8
		l-0.7,0l0,6.5l0.7,0l0-4c-0.1-0.9,0.5-1.8,1.5-1.9c0.1,0,0.2,0,0.4,0c1.2,0,1.8,0.7,1.8,1.9l0,4L307.3,5518.2z M314.4,5518.6l0-6.8
		l-0.7,0l0,0.8c-0.4-0.6-1.2-1-1.9-0.9c-0.6,0-1.1,0.2-1.6,0.6c-0.6,0.8-0.9,1.8-0.8,2.7c-0.1,1,0.2,2,0.8,2.7
		c0.4,0.4,1,0.6,1.6,0.6c0.8,0.1,1.5-0.3,1.9-0.9l0,1.2c0,1.3-0.6,2.2-2,2.2c-0.6,0-1.3-0.2-1.7-0.7l-0.5,0.5
		c0.5,0.6,1.3,0.9,2.1,0.9c1.4,0.1,2.6-1,2.7-2.5C314.5,5518.8,314.5,5518.7,314.4,5518.6z M313.8,5515c0,1.3-0.2,2.7-1.8,2.7
		c-1.6,0-1.8-1.4-1.8-2.7c0-1.3,0.2-2.7,1.8-2.7C313.5,5512.3,313.8,5513.6,313.8,5515z M327,5511.5c0.1-1.5-1.1-2.7-2.5-2.8
		c-0.1,0-0.2,0-0.3,0l-3.5,0l0,9.5l0.7,0l0-4l2.8,0c1.5,0.1,2.7-0.9,2.9-2.4C327,5511.7,327,5511.6,327,5511.5z M326.3,5511.4
		c0.1,1.1-0.7,2-1.8,2.1c-0.1,0-0.3,0-0.4,0l-2.7,0l0-4.2l2.7,0c1.1-0.1,2.1,0.6,2.2,1.7C326.3,5511.2,326.3,5511.3,326.3,5511.4z
		 M331,5518.3l0-0.6l-0.5,0c-0.8,0-1-0.4-1-1.1l0-7.9l-0.7,0l0,7.9c0,1,0.5,1.7,1.5,1.7L331,5518.3z M337.2,5518.3l0-4.4
		c0-1.4-0.8-2.1-2.5-2.1c-0.9-0.1-1.8,0.3-2.3,1l0.5,0.4c0.4-0.6,1.1-0.9,1.8-0.8c1.3,0,1.8,0.6,1.8,1.6l0,0.7l-2.1,0
		c-1.4,0-2.3,0.7-2.3,1.9c0,0.5,0.2,0.9,0.5,1.3c0.5,0.5,1.2,0.7,1.9,0.6c0.7,0.1,1.5-0.2,2-0.7l0,0.6L337.2,5518.3z M336.6,5516
		c0,0.4-0.1,0.9-0.4,1.2c-0.4,0.4-1,0.6-1.6,0.5c-1.2,0-1.7-0.4-1.7-1.3c0-0.9,0.6-1.3,1.7-1.3l2,0L336.6,5516z M344.8,5518.3l0-4.1
		c0-0.7-0.2-1.3-0.7-1.8c-0.5-0.4-1.1-0.6-1.7-0.6c-0.7,0-1.4,0.3-1.9,0.8l0-0.8l-0.7,0l0,6.5l0.7,0l0-4c-0.1-0.9,0.5-1.8,1.5-1.9
		c0.1,0,0.2,0,0.4,0c1.2,0,1.8,0.7,1.8,1.9l0,4L344.8,5518.3z"/>
</g>
</svg>
