<?xml version="1.0" encoding="utf-8"?>
<!-- Generator: Adobe Illustrator 24.2.0, SVG Export Plug-In . SVG Version: 6.00 Build 0)  -->
<svg version="1.1" id="レイヤー_1" xmlns="http://www.w3.org/2000/svg" xmlns:xlink="http://www.w3.org/1999/xlink" x="0px"
	 y="0px" viewBox="0 0 266 76" style="enable-background:new 0 0 266 76;" xml:space="preserve">
<style type="text/css">
	.st0{fill:#0D0002;}
</style>
<g id="グループ_617" transform="translate(-975.53 -3696.211)">
	<path id="パス_262" class="st0" d="M1109.6,3747.1l-3.9,24.4h5.6l3.9-24.4h13.4l-3.9,24.4h5.6l3.9-24.4h12.8v-5.1h-12l2.8-18.3
		h12.9v-5.1h-12l3.4-21.9h-5.5l-3.5,21.9h-13.4l3.5-21.9h-5.6l-3.5,21.9h-13.3v5.1h12.5l-2.9,18.3h-13.3v5.1H1109.6z M1129.4,3742
		H1116l2.9-18.3h13.4L1129.4,3742z M1210.3,3752.2v-34.4c0-11.1-7.7-19-18.7-19s-18.7,7.9-18.7,19v34.4c0,11.1,7.7,19,18.7,19
		S1210.3,3763.3,1210.3,3752.2z M1205.2,3751.7c0,8.4-4.7,15-13.6,15s-13.6-6.6-13.6-15v-33.4c0-8.4,4.7-15,13.6-15
		s13.6,6.6,13.6,15V3751.7z M1240.6,3770.6v-71.2h-5.1l-12.9,11.1v6.1l12.9-11.4v65.4H1240.6z"/>
	<path id="パス_263" d="M985.2,3700.1l0-0.9l-8.6,0l0,0.9l3.8,0l0,12l1,0l0-12L985.2,3700.1z M991.2,3704.7l0.7-0.7
		c-0.5-0.6-1.3-0.9-2.1-0.8c-1,0-2,0.4-2.5,1.3l0-1.2l-0.9,0l0,8.7l0.9,0l0-5.3c-0.1-1.3,0.8-2.5,2.2-2.6c0.1,0,0.1,0,0.2,0
		C990.2,3704,990.8,3704.3,991.2,3704.7z M999.5,3712.1l0-5.9c0-1.8-1.1-2.8-3.4-2.9c-1.2-0.1-2.4,0.4-3.1,1.3l0.7,0.6
		c0.5-0.8,1.5-1.2,2.4-1.1c1.8,0,2.4,0.7,2.4,2.1l0,1l-2.8,0c-1.9,0-3,0.9-3,2.5c0,0.6,0.2,1.2,0.6,1.7c0.7,0.6,1.6,0.9,2.6,0.8
		c1,0.1,2-0.3,2.6-1l0,0.9L999.5,3712.1z M998.6,3709c0.1,0.6-0.1,1.2-0.5,1.7c-0.6,0.5-1.4,0.7-2.2,0.7c-1.6,0-2.3-0.5-2.3-1.7
		c0-1.2,0.7-1.7,2.2-1.7l2.7,0L998.6,3709z M1008.7,3703.4l-1,0l-2.6,7.6l-2.6-7.6l-1,0l3.1,8.7l0.9,0L1008.7,3703.4z M1017,3708
		l0-0.4c0-2.7-1.3-4.2-3.5-4.2c-2.2,0-3.5,1.6-3.5,4.4c0,2.9,1.3,4.4,3.7,4.5c1.2,0.1,2.3-0.4,3.1-1.3l-0.7-0.5
		c-0.6,0.7-1.5,1.1-2.4,1c-1.9,0-2.8-1.2-2.8-3.4L1017,3708z M1016.1,3707.2l-5.1,0c0-0.6,0.1-1.1,0.3-1.6c0.4-0.9,1.3-1.5,2.3-1.5
		c1,0,1.9,0.6,2.2,1.5C1016,3706.1,1016.1,3706.7,1016.1,3707.2z M1022.8,3712.1l0-0.8l-0.6,0c-1,0-1.3-0.5-1.3-1.5l0-10.5l-0.9,0
		l0,10.6c0,1.4,0.7,2.3,2.1,2.3L1022.8,3712.1z M1026,3712.1l0-8.7l-0.9,0l0,8.7L1026,3712.1z M1026.1,3700.4l0-1.1l-1.1,0l0,1.1
		L1026.1,3700.4z M1036.2,3712.1l0-5.5c0.1-0.9-0.3-1.8-0.9-2.4c-0.6-0.6-1.5-0.9-2.3-0.8c-1,0-1.9,0.4-2.6,1.1l0-1l-0.9,0l0,8.7
		l0.9,0l0-5.4c-0.2-1.3,0.7-2.4,2-2.6c0.2,0,0.3,0,0.5,0c1.6,0,2.4,0.9,2.4,2.6l0,5.4L1036.2,3712.1z M1045.8,3712.7l0-9.2l-0.9,0
		l0,1.1c-0.6-0.8-1.6-1.3-2.6-1.2c-0.8,0-1.5,0.2-2.1,0.8c-0.8,1-1.2,2.4-1.1,3.7c-0.1,1.3,0.3,2.6,1.1,3.7c0.6,0.5,1.3,0.8,2.1,0.8
		c1,0.1,2-0.4,2.6-1.2l0,1.5c0,1.7-0.8,3-2.6,3c-0.9,0-1.7-0.3-2.2-1l-0.6,0.6c0.7,0.8,1.8,1.2,2.9,1.2c1.9,0.1,3.5-1.4,3.6-3.3
		C1045.8,3713,1045.8,3712.8,1045.8,3712.7z M1044.9,3707.8c0,1.8-0.3,3.6-2.5,3.6s-2.4-1.8-2.4-3.6c0-1.8,0.3-3.6,2.5-3.6
		S1044.9,3706,1044.9,3707.8z M1062.7,3703.1c0.1-2-1.4-3.6-3.4-3.7c-0.2,0-0.3,0-0.5,0l-4.7,0l0,12.8l1,0l0-5.4l3.7,0
		c2,0.2,3.7-1.3,3.9-3.2C1062.7,3703.4,1062.7,3703.2,1062.7,3703.1L1062.7,3703.1z M1061.7,3703.1c0,1.9-1.2,2.8-3,2.8l-3.6,0
		l0-5.7l3.6,0C1060.5,3700.3,1061.7,3701.2,1061.7,3703.1L1061.7,3703.1z M1068.1,3712.2l0-0.8l-0.6,0c-1,0-1.3-0.5-1.3-1.5l0-10.5
		l-0.9,0l0,10.6c0,1.4,0.7,2.3,2.1,2.3L1068.1,3712.2z M1076.4,3712.2l0-5.9c0-1.8-1.1-2.8-3.4-2.9c-1.2-0.1-2.4,0.4-3.1,1.3
		l0.7,0.6c0.5-0.8,1.5-1.2,2.4-1.1c1.8,0,2.4,0.7,2.4,2.1l0,1l-2.8,0c-1.9,0-3,0.9-3,2.5c0,0.6,0.2,1.2,0.6,1.7
		c0.7,0.6,1.6,0.9,2.6,0.8c1,0.1,2-0.3,2.6-1l0,0.9L1076.4,3712.2z M1075.5,3709.2c0.1,0.6-0.1,1.2-0.5,1.7
		c-0.6,0.5-1.4,0.7-2.2,0.7c-1.6,0-2.3-0.5-2.3-1.7c0-1.2,0.7-1.7,2.2-1.7l2.7,0L1075.5,3709.2z M1086.5,3712.3l0-5.5
		c0.1-0.9-0.3-1.8-0.9-2.4c-0.6-0.6-1.5-0.9-2.3-0.8c-1,0-1.9,0.4-2.6,1.1l0-1l-0.9,0l0,8.7l0.9,0l0-5.4c-0.2-1.3,0.7-2.4,2-2.6
		c0.2,0,0.3,0,0.5,0c1.6,0,2.4,0.9,2.4,2.6l0,5.4L1086.5,3712.3z"/>
</g>
</svg>
