<?xml version="1.0" encoding="utf-8"?>
<!-- Generator: Adobe Illustrator 24.2.0, SVG Export Plug-In . SVG Version: 6.00 Build 0)  -->
<svg version="1.1" id="レイヤー_1" xmlns="http://www.w3.org/2000/svg" xmlns:xlink="http://www.w3.org/1999/xlink" x="0px"
	 y="0px" viewBox="0 0 85 68" style="enable-background:new 0 0 85 68;" xml:space="preserve">
<style type="text/css">
	.st0{fill:#0D0002;}
</style>
<g id="グループ_617" transform="translate(-261.78 -7484.887)">
	<path id="パス_262" class="st0" d="M292,7525.8v-2.7h-5.6l2.2-13.8h-3l-2.2,13.8h-10.5l2.2-13.8H272l-2.2,13.8h-6.3v2.7h5.9
		l-1.5,9.2h-6.2v2.6h5.8l-2.3,14.4h3.1l2.2-14.4h10.6l-2.3,14.4h3.1l2.3-14.4h6.2v-2.6h-5.8l1.5-9.2H292z M281.5,7535H271l1.5-9.2
		H283L281.5,7535z M318.7,7541v-20.6c0-6.7-4.6-11.4-11.2-11.4s-11.2,4.7-11.2,11.4v20.6c0,6.7,4.6,11.4,11.2,11.4
		S318.7,7547.6,318.7,7541z M315.7,7540.7c0,5-2.8,9-8.2,9s-8.2-4-8.2-9v-20c0-5,2.8-9,8.2-9s8.2,4,8.2,9V7540.7z M346.8,7540.6
		c0-5.5-2.1-9.1-6.9-10.7c4.3-1.9,6.1-5.2,6.1-9.7c0-6.9-4.6-11.3-11.3-11.3c-6.2,0-10.9,3.8-11.6,10.5h3.1c0.5-4.8,3.5-7.8,8.5-7.8
		c4.6,0,8.3,3.1,8.3,8.6c0,5.5-2.7,8.6-8.5,8.6h-0.7v2.7h0.7c6.5,0,9.3,3.4,9.3,9.1c0,5.7-4,9.1-9.1,9.1c-4.5,0-8.6-2.3-9.1-8.1
		h-3.1c0.5,7.4,5.5,10.8,12.2,10.8C341.5,7552.4,346.8,7548.2,346.8,7540.6z"/>
	<path id="パス_263" d="M269.6,7486l0-0.6l-6.4,0l0,0.6l2.8,0l0,8.9l0.7,0l0-8.9L269.6,7486z M274.1,7489.5l0.5-0.5
		c-0.4-0.4-1-0.7-1.6-0.6c-0.8,0-1.5,0.3-1.9,0.9l0-0.9l-0.7,0l0,6.5l0.7,0l0-4c-0.1-1,0.6-1.9,1.6-1.9c0,0,0.1,0,0.1,0
		C273.4,7488.9,273.8,7489.1,274.1,7489.5z M280.3,7494.9l0-4.4c0-1.4-0.8-2.1-2.5-2.1c-0.9-0.1-1.8,0.3-2.3,1l0.5,0.4
		c0.4-0.6,1.1-0.9,1.8-0.8c1.3,0,1.8,0.6,1.8,1.6l0,0.7l-2.1,0c-1.4,0-2.3,0.7-2.3,1.9c0,0.5,0.2,0.9,0.5,1.3
		c0.5,0.5,1.2,0.7,1.9,0.6c0.7,0.1,1.5-0.2,2-0.7l0,0.6L280.3,7494.9z M279.6,7492.7c0,0.4-0.1,0.9-0.4,1.2c-0.4,0.4-1,0.6-1.6,0.5
		c-1.2,0-1.7-0.4-1.7-1.3c0-0.9,0.6-1.3,1.7-1.3l2,0L279.6,7492.7z M287.1,7488.5l-0.8,0l-2,5.7l-1.9-5.7l-0.8,0l2.3,6.5l0.7,0
		L287.1,7488.5z M293.3,7491.9l0-0.3c0-2-1-3.2-2.6-3.2s-2.6,1.2-2.6,3.3c0,2.2,1,3.3,2.7,3.3c0.9,0,1.7-0.3,2.3-1l-0.5-0.4
		c-0.4,0.5-1.1,0.8-1.8,0.8c-1.4,0-2.1-0.9-2.1-2.6L293.3,7491.9z M292.6,7491.3l-3.8,0c0-0.4,0.1-0.8,0.2-1.2
		c0.3-0.7,1-1.1,1.7-1.1c0.7,0,1.4,0.4,1.7,1.1C292.5,7490.5,292.6,7490.9,292.6,7491.3L292.6,7491.3z M297.6,7495l0-0.6l-0.5,0
		c-0.8,0-1-0.4-1-1.1l0-7.9l-0.7,0l0,7.9c0,1,0.5,1.7,1.5,1.7L297.6,7495z M300,7495l0-6.5l-0.7,0l0,6.5L300,7495z M300.1,7486.3
		l0-0.8l-0.8,0l0,0.8L300.1,7486.3z M307.6,7495l0-4.1c0-0.7-0.2-1.3-0.7-1.8c-0.5-0.4-1.1-0.7-1.7-0.6c-0.7,0-1.4,0.3-1.9,0.8
		l0-0.8l-0.7,0l0,6.5l0.7,0l0-4c-0.1-0.9,0.5-1.8,1.5-1.9c0.1,0,0.2,0,0.4,0c1.2,0,1.8,0.7,1.8,1.9l0,4L307.6,7495z M314.7,7495.4
		l0-6.8l-0.7,0l0,0.8c-0.4-0.6-1.2-1-1.9-0.9c-0.6,0-1.1,0.2-1.6,0.6c-0.6,0.8-0.9,1.8-0.8,2.7c-0.1,1,0.2,2,0.8,2.7
		c0.4,0.4,1,0.6,1.6,0.6c0.8,0.1,1.5-0.3,1.9-0.9l0,1.2c0,1.3-0.6,2.2-2,2.2c-0.6,0-1.3-0.2-1.7-0.7l-0.5,0.5
		c0.5,0.6,1.3,0.9,2.1,0.9c1.4,0.1,2.6-1,2.7-2.5C314.7,7495.6,314.7,7495.5,314.7,7495.4z M314.1,7491.8c0,1.3-0.2,2.7-1.8,2.7
		s-1.8-1.4-1.8-2.7c0-1.3,0.2-2.7,1.8-2.7S314.1,7490.4,314.1,7491.8z M327.3,7488.3c0.1-1.5-1.1-2.7-2.5-2.8c-0.1,0-0.2,0-0.3,0
		l-3.5,0l0,9.5l0.7,0l0-4l2.8,0c1.5,0.1,2.7-0.9,2.9-2.4C327.3,7488.5,327.3,7488.4,327.3,7488.3z M326.6,7488.2
		c0.1,1.1-0.7,2-1.8,2.1c-0.1,0-0.3,0-0.4,0l-2.7,0l0-4.2l2.7,0c1.1-0.1,2.1,0.6,2.2,1.7C326.6,7488,326.6,7488.1,326.6,7488.2z
		 M331.3,7495.1l0-0.6l-0.5,0c-0.8,0-1-0.4-1-1.1l0-7.9l-0.7,0l0,7.9c0,1,0.5,1.7,1.5,1.7L331.3,7495.1z M337.5,7495.1l0-4.4
		c0-1.4-0.8-2.1-2.5-2.1c-0.9-0.1-1.8,0.3-2.3,1l0.5,0.4c0.4-0.6,1.1-0.9,1.8-0.8c1.3,0,1.8,0.6,1.8,1.6l0,0.7l-2.1,0
		c-1.4,0-2.3,0.7-2.3,1.9c0,0.5,0.2,0.9,0.5,1.3c0.5,0.5,1.2,0.7,1.9,0.6c0.7,0.1,1.5-0.2,2-0.7l0,0.6L337.5,7495.1z M336.8,7492.8
		c0,0.4-0.1,0.9-0.4,1.2c-0.4,0.4-1,0.6-1.6,0.5c-1.2,0-1.7-0.4-1.7-1.3c0-0.9,0.6-1.3,1.7-1.3l2,0L336.8,7492.8z M345,7495.1l0-4.1
		c0-0.7-0.2-1.3-0.7-1.8c-0.5-0.4-1.1-0.6-1.7-0.6c-0.7,0-1.4,0.3-1.9,0.8l0-0.8l-0.7,0l0,6.5l0.7,0l0-4c-0.1-0.9,0.5-1.8,1.5-1.9
		c0.1,0,0.2,0,0.4,0c1.2,0,1.8,0.7,1.8,1.9l0,4L345,7495.1z"/>
</g>
</svg>
