<?xml version="1.0" encoding="utf-8"?>
<!-- Generator: Adobe Illustrator 24.2.0, SVG Export Plug-In . SVG Version: 6.00 Build 0)  -->
<svg version="1.1" id="レイヤー_1" xmlns="http://www.w3.org/2000/svg" xmlns:xlink="http://www.w3.org/1999/xlink" x="0px"
	 y="0px" viewBox="0 0 262 74" style="enable-background:new 0 0 262 74;" xml:space="preserve">
<style type="text/css">
	.st0{fill:#0D0002;}
</style>
<g id="グループ_617" transform="translate(-79.899 -5208.811)">
	<path id="パス_262" class="st0" d="M251.9,5237.7v-4.5h-9.4l3.6-23h-5l-3.6,23H220l3.7-23h-5.2l-3.6,23h-10.5v4.5h9.9l-2.5,15.3
		h-10.3v4.4h9.6l-3.8,24h5.1l3.7-24h17.6l-3.9,24h5.1l3.8-24H249v-4.4h-9.6l2.5-15.3H251.9z M234.3,5253h-17.5l2.5-15.3h17.5
		L234.3,5253z M295.4,5263v-34.4c0-11.1-7.7-19-18.7-19s-18.7,7.9-18.7,19v34.4c0,11.1,7.7,19,18.7,19S295.4,5274.1,295.4,5263z
		 M290.3,5262.5c0,8.4-4.7,15-13.6,15c-8.9,0-13.6-6.6-13.6-15v-33.4c0-8.4,4.7-15,13.6-15s13.6,6.6,13.6,15V5262.5z M341.3,5281.4
		v-4.5h-31.6l26.7-34.9c3.6-4.7,4.9-8.4,4.9-13.7c0-11.2-7.4-18.7-18.8-18.7c-11.7,0-18.8,8.1-18.8,18.7h5.1
		c0-10,6.3-14.2,13.7-14.2c8.7,0,13.7,5.7,13.7,14.2c0,4.1-1.4,8-4,11.1l-28.6,37.5v4.5H341.3z"/>
	<path id="パス_263" d="M89.2,5213.6l0-0.9l-8.6,0l0,0.9l3.8,0l0,12l1,0l0-12L89.2,5213.6z M95.3,5218.3l0.7-0.7
		c-0.5-0.6-1.3-0.9-2.1-0.8c-1,0-2,0.4-2.5,1.3l0-1.2l-0.9,0l0,8.7l0.9,0l0-5.3c-0.1-1.3,0.8-2.5,2.2-2.6c0.1,0,0.1,0,0.2,0
		C94.3,5217.6,94.9,5217.8,95.3,5218.3z M103.6,5225.6l0-5.9c0-1.8-1.1-2.8-3.4-2.9c-1.2-0.1-2.4,0.4-3.1,1.3l0.7,0.6
		c0.5-0.8,1.5-1.2,2.4-1.1c1.8,0,2.4,0.7,2.4,2.1l0,1l-2.8,0c-1.9,0-3,0.9-3,2.5c0,0.6,0.2,1.2,0.6,1.7c0.7,0.6,1.6,0.9,2.6,0.8
		c1,0.1,2-0.3,2.6-1l0,0.9L103.6,5225.6z M102.7,5222.6c0.1,0.6-0.1,1.2-0.5,1.7c-0.6,0.5-1.4,0.7-2.2,0.7c-1.6,0-2.3-0.5-2.3-1.7
		c0-1.2,0.7-1.7,2.2-1.7l2.7,0L102.7,5222.6z M112.8,5217l-1,0l-2.6,7.6l-2.6-7.6l-1,0l3.1,8.7l0.9,0L112.8,5217z M121,5221.5l0-0.4
		c0-2.7-1.3-4.2-3.5-4.2c-2.2,0-3.5,1.6-3.5,4.4c0,2.9,1.3,4.4,3.7,4.5c1.2,0.1,2.3-0.4,3.1-1.3l-0.7-0.5c-0.6,0.7-1.5,1.1-2.4,1
		c-1.9,0-2.8-1.2-2.8-3.4L121,5221.5z M120.1,5220.8l-5.1,0c0-0.6,0.1-1.1,0.3-1.6c0.4-0.9,1.3-1.5,2.3-1.5c1,0,1.9,0.6,2.2,1.5
		C120,5219.7,120.1,5220.2,120.1,5220.8z M126.8,5225.7l0-0.8l-0.6,0c-1,0-1.3-0.5-1.3-1.5l0-10.5l-0.9,0l0,10.6
		c0,1.4,0.7,2.3,2.1,2.3L126.8,5225.7z M130.1,5225.7l0-8.7l-0.9,0l0,8.7L130.1,5225.7z M130.2,5214l0-1.1l-1.1,0l0,1.1L130.2,5214z
		 M140.2,5225.7l0-5.5c0.1-0.9-0.3-1.8-0.9-2.4c-0.6-0.6-1.5-0.9-2.3-0.8c-1,0-1.9,0.4-2.6,1.1l0-1l-0.9,0l0,8.7l0.9,0l0-5.4
		c-0.2-1.3,0.7-2.4,2-2.6c0.2,0,0.3,0,0.5,0c1.6,0,2.4,0.9,2.4,2.6l0,5.4L140.2,5225.7z M149.8,5226.2l0-9.2l-0.9,0l0,1.1
		c-0.6-0.8-1.6-1.3-2.6-1.2c-0.8,0-1.5,0.2-2.1,0.8c-0.8,1-1.2,2.4-1.1,3.7c-0.1,1.3,0.3,2.6,1.1,3.7c0.6,0.5,1.3,0.8,2.1,0.8
		c1,0.1,2-0.4,2.6-1.2l0,1.5c0,1.7-0.8,3-2.6,3c-0.9,0-1.7-0.3-2.2-1l-0.6,0.6c0.7,0.8,1.8,1.2,2.9,1.2c1.9,0.1,3.5-1.4,3.6-3.3
		C149.9,5226.5,149.8,5226.4,149.8,5226.2z M148.9,5221.4c0,1.8-0.3,3.6-2.5,3.6c-2.1,0-2.4-1.8-2.4-3.6c0-1.8,0.3-3.6,2.5-3.6
		C148.6,5217.8,148.9,5219.6,148.9,5221.4z M166.7,5216.7c0.1-2-1.4-3.6-3.4-3.7c-0.2,0-0.3,0-0.5,0l-4.7,0l0,12.8l1,0l0-5.4l3.7,0
		c2,0.2,3.7-1.3,3.9-3.2C166.7,5217,166.7,5216.8,166.7,5216.7L166.7,5216.7z M165.8,5216.6c0,1.9-1.2,2.8-3,2.8l-3.6,0l0-5.7l3.6,0
		C164.6,5213.8,165.8,5214.7,165.8,5216.6L165.8,5216.6z M172.1,5225.8l0-0.8l-0.6,0c-1,0-1.3-0.5-1.3-1.5l0-10.5l-0.9,0l0,10.6
		c0,1.4,0.7,2.3,2.1,2.3L172.1,5225.8z M180.5,5225.8l0-5.9c0-1.8-1.1-2.8-3.4-2.9c-1.2-0.1-2.4,0.4-3.1,1.3l0.7,0.6
		c0.5-0.8,1.5-1.2,2.4-1.1c1.8,0,2.4,0.7,2.4,2.1l0,1l-2.8,0c-1.9,0-3,0.9-3,2.5c0,0.6,0.2,1.2,0.6,1.7c0.7,0.6,1.6,0.9,2.6,0.8
		c1,0.1,2-0.3,2.6-1l0,0.9L180.5,5225.8z M179.5,5222.8c0.1,0.6-0.1,1.2-0.5,1.7c-0.6,0.5-1.4,0.7-2.2,0.7c-1.6,0-2.3-0.5-2.3-1.7
		c0-1.2,0.7-1.7,2.2-1.7l2.7,0L179.5,5222.8z M190.5,5225.8l0-5.5c0.1-0.9-0.3-1.8-0.9-2.4c-0.6-0.6-1.5-0.9-2.3-0.8
		c-1,0-1.9,0.4-2.6,1.1l0-1l-0.9,0l0,8.7l0.9,0l0-5.4c-0.2-1.3,0.7-2.4,2-2.6c0.2,0,0.3,0,0.5,0c1.6,0,2.4,0.9,2.4,2.6l0,5.4
		L190.5,5225.8z"/>
</g>
</svg>
